<svg width="517" height="407" viewBox="0 0 517 407" fill="none" xmlns="http://www.w3.org/2000/svg">
<g clip-path="url(#clip0_121_202)">
<path d="M189.269 85.4407H283.91C287.726 85.4407 290.82 88.5336 290.82 92.3487V164.167C290.82 167.982 287.726 171.075 283.91 171.075H189.269C185.453 171.075 182.359 167.982 182.359 164.167V92.3487C182.359 88.5336 185.453 85.4407 189.269 85.4407Z" fill="white" fill-opacity="0.1" stroke="white"/>
<path d="M283.906 171.86H189.266C185.023 171.86 181.57 168.408 181.57 164.166V92.3476C181.57 88.1054 185.023 84.6539 189.266 84.6539H283.906C288.149 84.6539 291.602 88.1054 291.602 92.3476V164.166C291.602 168.408 288.149 171.86 283.906 171.86ZM189.266 85.2252C185.338 85.2252 182.142 88.4196 182.142 92.3476V164.166C182.142 168.093 185.337 171.288 189.266 171.288H283.906C287.834 171.288 291.03 168.094 291.03 164.166V92.3476C291.03 88.4208 287.835 85.2252 283.906 85.2252H189.266Z" fill="black"/>
<path d="M212.088 114.107C216.999 109.198 216.999 101.239 212.088 96.3293C207.178 91.42 199.216 91.42 194.305 96.3293C189.395 101.239 189.395 109.198 194.305 114.107C199.216 119.017 207.178 119.017 212.088 114.107Z" fill="#999999"/>
<path d="M245.033 114.107C249.944 109.198 249.944 101.239 245.033 96.3293C240.123 91.42 232.161 91.42 227.251 96.3293C222.34 101.239 222.34 109.198 227.251 114.107C232.161 119.017 240.123 119.017 245.033 114.107Z" fill="#999999"/>
<path d="M277.987 114.107C282.897 109.198 282.897 101.239 277.987 96.3293C273.076 91.42 265.114 91.42 260.204 96.3293C255.293 101.239 255.293 109.198 260.204 114.107C265.114 119.017 273.076 119.017 277.987 114.107Z" fill="#999999"/>
<path d="M292.852 128.112H247.449C245.52 128.112 243.942 129.689 243.942 131.618V146.057L234.484 156.906L249.803 152.17H292.852C294.781 152.17 296.359 150.592 296.359 148.663V131.618C296.359 129.689 294.781 128.112 292.852 128.112Z" fill="white"/>
<path d="M233.611 157.477L243.658 145.951V131.619C243.658 129.528 245.36 127.827 247.451 127.827H292.854C294.945 127.827 296.647 129.528 296.647 131.619V148.664C296.647 150.755 294.945 152.456 292.854 152.456H249.846L233.609 157.477H233.611ZM247.451 128.397C245.675 128.397 244.229 129.843 244.229 131.618V146.164L235.361 156.337L249.761 151.885H292.854C294.629 151.885 296.075 150.44 296.075 148.664V131.619C296.075 129.844 294.629 128.398 292.854 128.398H247.451V128.397Z" fill="black"/>
<path d="M282.296 138.896H327.699C329.628 138.896 331.206 140.474 331.206 142.402V156.841L340.664 167.691L325.346 162.954H282.296C280.367 162.954 278.789 161.376 278.789 159.447V142.402C278.789 140.474 280.367 138.896 282.296 138.896Z" fill="#B3B3B3"/>
<path d="M328.09 78.3096H182.975C180.169 78.3096 177.891 75.2293 177.882 71.4213L177.859 62.2196C177.85 58.3933 180.132 55.2856 182.952 55.2856H328.067C330.873 55.2856 333.151 58.3659 333.16 62.1739L333.183 71.3768C333.192 75.2031 330.91 78.3107 328.09 78.3107V78.3096Z" fill="white" fill-opacity="0.1"/>
<path d="M328.087 78.5952H182.971C180.015 78.5952 177.602 75.3779 177.593 71.4225L177.57 62.2207C177.565 59.9528 178.37 57.79 179.725 56.4327C180.659 55.4959 181.775 55.0012 182.95 55.0012H328.065C331.022 55.0012 333.434 58.2185 333.443 62.1739L333.466 71.3768C333.472 73.6447 332.666 75.8074 331.312 77.1648C330.377 78.1016 329.262 78.5963 328.087 78.5963V78.5952ZM182.948 55.5713C181.929 55.5713 180.953 56.0089 180.128 56.8349C178.879 58.0871 178.136 60.099 178.141 62.2184L178.163 71.4202C178.173 75.0614 180.329 78.0228 182.97 78.0228H328.086C329.105 78.0228 330.081 77.5852 330.906 76.7592C332.155 75.507 332.898 73.495 332.894 71.3756L332.871 62.1727C332.862 58.5315 330.705 55.5701 328.064 55.5701H182.948V55.5713Z" fill="white"/>
<path d="M314.95 68.6313C314.386 68.6313 313.819 68.5388 313.27 68.3526C311.95 67.9047 310.883 66.9713 310.268 65.7213C309.652 64.4726 309.558 63.0582 310.006 61.7386C310.454 60.4189 311.387 59.353 312.637 58.7372C315.215 57.4644 318.349 58.5269 319.623 61.1056C320.896 63.6842 319.833 66.817 317.253 68.0898C316.524 68.4497 315.739 68.6313 314.95 68.6313ZM314.938 59.3107C314.329 59.3107 313.711 59.4467 313.128 59.7346C311.098 60.7354 310.262 63.201 311.264 65.2301C311.75 66.2126 312.589 66.9484 313.626 67.3003C314.665 67.6522 315.778 67.5791 316.761 67.0935C318.791 66.0927 319.627 63.6271 318.625 61.598C317.911 60.1516 316.452 59.3107 314.938 59.3107Z" fill="black"/>
<path d="M318.932 65.7055L317.531 67.0064L324.794 74.823L326.195 73.5221L318.932 65.7055Z" fill="black"/>
<path d="M300.307 60.1916H185.099C183.685 60.1916 182.539 61.3374 182.539 62.7508V70.8444C182.539 72.2578 183.685 73.4036 185.099 73.4036H300.307C301.721 73.4036 302.867 72.2578 302.867 70.8444V62.7508C302.867 61.3374 301.721 60.1916 300.307 60.1916Z" fill="white" fill-opacity="0.1"/>
<path d="M300.304 73.6892H185.096C183.527 73.6892 182.25 72.413 182.25 70.8444V62.7508C182.25 61.1822 183.527 59.906 185.096 59.906H300.304C301.873 59.906 303.15 61.1822 303.15 62.7508V70.8444C303.15 72.413 301.873 73.6892 300.304 73.6892ZM185.096 60.4772C183.842 60.4772 182.821 61.4975 182.821 62.7508V70.8444C182.821 72.0977 183.842 73.118 185.096 73.118H300.304C301.558 73.118 302.578 72.0977 302.578 70.8444V62.7508C302.578 61.4975 301.558 60.4772 300.304 60.4772H185.096Z" fill="black" fill-opacity="0.1"/>
<path d="M216.19 189.168H331.836C336.329 189.168 339.971 192.81 339.971 197.301V268.941C339.971 273.433 336.329 277.074 331.836 277.074H216.19C211.697 277.074 208.055 273.433 208.055 268.941V197.301C208.055 192.81 211.697 189.168 216.19 189.168Z" fill="white" fill-opacity="0.1" stroke="white"/>
<path d="M331.831 277.861H216.186C211.268 277.861 207.266 273.86 207.266 268.942V197.303C207.266 192.386 211.268 188.385 216.186 188.385H331.831C336.75 188.385 340.752 192.386 340.752 197.303V268.942C340.752 273.86 336.75 277.861 331.831 277.861ZM216.186 188.955C211.582 188.955 207.837 192.7 207.837 197.302V268.941C207.837 273.544 211.583 277.288 216.186 277.288H331.831C336.436 277.288 340.181 273.543 340.181 268.941V197.302C340.181 192.699 336.435 188.955 331.831 188.955H216.186Z" fill="black"/>
<path d="M276.416 198.28H215.602V208.322H276.416V198.28Z" fill="#B3B3B3"/>
<path d="M297.114 218.559H215.602V225.294H297.114V218.559Z" fill="#B3B3B3"/>
<path d="M308.485 227.645H215.602V234.38H308.485V227.645Z" fill="#B3B3B3"/>
<path d="M281.872 236.731H215.602V243.467H281.872V236.731Z" fill="#B3B3B3"/>
<path d="M216.19 251.256H331.835C336.325 251.256 339.97 254.901 339.97 259.389V331.028C339.97 335.517 336.324 339.16 331.835 339.16H216.19C211.699 339.16 208.055 335.516 208.055 331.028V259.389C208.055 254.9 211.7 251.256 216.19 251.256Z" fill="white" fill-opacity="0.1" stroke="white"/>
<path d="M331.831 339.947H216.186C211.268 339.947 207.266 335.946 207.266 331.029V259.39C207.266 254.472 211.268 250.47 216.186 250.47H331.831C336.75 250.47 340.752 254.471 340.752 259.39V331.029C340.752 335.946 336.75 339.947 331.831 339.947ZM216.186 251.041C211.582 251.041 207.837 254.787 207.837 259.39V331.029C207.837 335.632 211.583 339.376 216.186 339.376H331.831C336.436 339.376 340.181 335.631 340.181 331.029V259.39C340.181 254.787 336.435 251.041 331.831 251.041H216.186Z" fill="black"/>
<path d="M276.416 263.866H215.602V273.908H276.416V263.866Z" fill="#B3B3B3"/>
<path d="M297.114 284.145H215.602V290.88H297.114V284.145Z" fill="#B3B3B3"/>
<path d="M308.485 293.231H215.602V299.966H308.485V293.231Z" fill="#B3B3B3"/>
<path d="M281.872 302.319H215.602V309.054H281.872V302.319Z" fill="#B3B3B3"/>
<path d="M263.925 228.664L255.748 227.45L248.911 232.069L245.547 254.711L250.745 261.117L258.923 262.332L263.925 228.664ZM251.648 258.646L248.36 254.537L252.021 232.891L256.068 229.925L261.418 230.789L256.998 259.51L251.647 258.646H251.648Z" fill="black"/>
<path d="M227.247 236.006L225.713 245.652L192.867 240.774L194.402 231.129L227.247 236.006Z" fill="#999999"/>
<path d="M226.144 246.235L192.281 241.206L193.978 230.545L227.841 235.574L226.144 246.235ZM193.461 240.342L225.288 245.068L226.661 236.439L194.834 231.712L193.461 240.342Z" fill="black"/>
<path d="M205.609 238.541L194.586 229.129L182.198 243.629L193.221 253.042L205.609 238.541Z" fill="white"/>
<path d="M193.299 253.763L181.492 243.684L194.546 228.4L206.352 238.479L193.297 253.763H193.299ZM182.942 243.569L193.184 252.313L204.903 238.594L194.661 229.85L182.942 243.569Z" fill="black"/>
<path d="M181.469 248.652L188.5 254.977L151.687 298.075L144.656 291.75L181.469 248.652Z" fill="#999999"/>
<path d="M151.733 298.811L143.938 291.797L181.419 247.917L189.214 254.931L151.733 298.811ZM145.371 291.703L151.635 297.341L187.78 255.025L181.515 249.388L145.371 291.703Z" fill="black"/>
<path d="M158.579 295.148L146.82 285.108L134.432 299.609L146.191 309.649L158.579 295.148Z" fill="white"/>
<path d="M146.268 310.377L133.727 299.67L146.781 284.387L159.322 295.093L146.268 310.377ZM135.177 299.556L146.153 308.927L157.872 295.208L146.895 285.837L135.177 299.556Z" fill="black"/>
<path d="M190.976 343.343L185.133 351.208L142.438 313.925L148.282 306.059L190.976 343.343Z" fill="#999999"/>
<path d="M185.215 351.962L141.742 314.001L148.201 305.306L191.674 343.267L185.215 351.962ZM143.135 313.851L185.053 350.455L190.282 343.417L148.364 306.813L143.135 313.851Z" fill="black"/>
<path d="M192.496 336.325L178.75 352.056L202.385 372.698L216.131 356.967L192.496 336.325Z" fill="white"/>
<path d="M202.435 373.398L178.023 352.081L192.444 335.575L216.856 356.892L202.435 373.398ZM179.475 351.984L202.337 371.947L215.405 356.989L192.543 337.026L179.475 351.984Z" fill="black"/>
<path d="M164.075 312.417L150.331 328.15L126.695 307.509L134.682 298.367L153.692 298.301L164.075 312.417Z" fill="white"/>
<path d="M150.38 328.875L125.969 307.558L134.447 297.854L153.95 297.787L164.734 312.445L150.379 328.874L150.38 328.875ZM127.42 307.461L150.282 327.424L163.417 312.39L153.433 298.817L134.917 298.88L127.421 307.46L127.42 307.461Z" fill="black"/>
<path d="M200.84 248.097L186.336 235.712L173.948 250.213L188.452 262.598L200.84 248.097Z" fill="white"/>
<path d="M188.529 263.321L173.242 250.27L186.296 234.987L201.584 248.038L188.529 263.321ZM174.692 250.156L188.415 261.871L200.134 248.152L186.411 236.437L174.692 250.156Z" fill="black"/>
<path d="M239.65 250.393L241.859 235.527L220.042 232.286L217.832 247.153L239.65 250.393Z" fill="white"/>
<path d="M240.086 250.979L217.25 247.588L219.61 231.704L242.445 235.095L240.086 250.979ZM218.419 246.722L239.219 249.811L241.277 235.961L220.477 232.872L218.419 246.722Z" fill="black"/>
<path d="M225.531 250.648L228.351 231.202L250.774 230.469L246.835 256.971L225.531 250.648Z" fill="white"/>
<path d="M247.259 257.633L224.961 251.014L227.907 230.701L251.376 229.935L247.26 257.633H247.259ZM226.106 250.282L246.416 256.31L250.176 231.003L228.8 231.701L226.105 250.28L226.106 250.282Z" fill="black"/>
<path d="M258.421 230.807L276.17 233.817L282.812 238.782L282.003 242.388L262.394 239.258L257.875 235.128L258.421 230.807Z" fill="white"/>
<path d="M282.396 242.972L262.158 239.741L257.328 235.328L257.976 230.211L276.375 233.331L283.384 238.571L282.396 242.972ZM262.624 238.774L281.604 241.804L282.234 238.995L275.958 234.304L258.862 231.405L258.416 234.93L262.625 238.775L262.624 238.774Z" fill="black"/>
<path d="M315.136 213.161L300.828 203.911L294.749 213.309L309.057 222.559L315.136 213.161Z" fill="black"/>
<path d="M313.764 217.464L297.461 206.923L291.382 216.321L307.685 226.862L313.764 217.464Z" fill="white"/>
<path d="M307.864 227.559L290.695 216.462L297.333 206.2L314.501 217.297L307.864 227.559ZM292.118 216.157L307.559 226.138L313.078 217.602L297.638 207.621L292.118 216.157Z" fill="black"/>
<path d="M242.508 318.708L226.203 308.169L291.623 215.973L307.926 226.513L242.508 318.708Z" fill="black"/>
<path d="M327.345 114.991C356.167 111.904 382.037 132.761 385.125 161.577C386.016 169.899 384.911 177.974 382.192 185.326C387.432 176.554 389.973 166.07 388.8 155.129C385.927 128.323 361.863 108.921 335.051 111.793C328.942 112.448 323.219 114.202 318.055 116.837C321.039 115.96 324.141 115.335 327.343 114.992L327.345 114.991Z" fill="white"/>
<path d="M373.186 107.734C344.579 89.2422 306.395 97.4363 287.899 126.036C269.403 154.635 277.599 192.809 306.206 211.3C334.812 229.792 372.996 221.598 391.492 192.998C409.988 164.399 401.792 126.225 373.186 107.734ZM386.34 188.771C370.057 213.951 336.438 221.165 311.252 204.884C286.066 188.604 278.85 154.994 295.135 129.815C311.419 104.635 345.038 97.4215 370.223 113.702C395.41 129.982 402.625 163.592 386.34 188.771Z" fill="#767676"/>
<path d="M254.258 258.473L272.071 261.073L279.919 258.392L280.259 254.713L260.639 251.657L255.068 254.194L254.258 258.473Z" fill="white"/>
<path d="M272.115 261.599L271.992 261.581L253.648 258.904L254.607 253.836L260.561 251.125L260.713 251.149L280.811 254.279L280.396 258.772L272.114 261.599H272.115ZM254.859 258.043L272.018 260.547L279.435 258.015L279.699 255.149L260.708 252.19L255.519 254.552L254.859 258.043Z" fill="black"/>
<path d="M233.795 387.522H175.523V405.932H233.795V387.522Z" fill="black"/>
<path d="M204.661 348.497C212.898 348.497 219.586 355.183 219.586 363.418V387.522H189.734V363.418C189.734 355.183 196.422 348.497 204.659 348.497H204.661Z" fill="black"/>
<path d="M205.063 366.145C206.733 366.145 208.087 364.791 208.087 363.122C208.087 361.452 206.733 360.099 205.063 360.099C203.393 360.099 202.039 361.452 202.039 363.122C202.039 364.791 203.393 366.145 205.063 366.145Z" fill="white"/>
<path d="M194.199 342.368C194.958 341.61 194.958 340.38 194.199 339.622C193.441 338.863 192.211 338.863 191.452 339.622C190.693 340.38 190.693 341.61 191.452 342.368C192.211 343.127 193.441 343.127 194.199 342.368Z" fill="black"/>
<path d="M184.59 353.387C185.349 352.628 185.349 351.399 184.59 350.64C183.831 349.882 182.601 349.882 181.842 350.64C181.084 351.399 181.084 352.628 181.842 353.387C182.601 354.146 183.831 354.146 184.59 353.387Z" fill="black"/>
<path d="M153.477 303.582C154.468 303.172 154.939 302.036 154.529 301.045C154.118 300.054 152.981 299.583 151.99 299.993C150.999 300.404 150.528 301.54 150.939 302.531C151.349 303.522 152.486 303.993 153.477 303.582Z" fill="black"/>
<path d="M160.162 314.158C161.234 314.158 162.104 313.289 162.104 312.216C162.104 311.143 161.234 310.274 160.162 310.274C159.089 310.274 158.219 311.143 158.219 312.216C158.219 313.289 159.089 314.158 160.162 314.158Z" fill="black"/>
<path d="M151.603 323.396C151.849 322.352 151.203 321.306 150.158 321.06C149.114 320.813 148.068 321.46 147.821 322.504C147.575 323.548 148.222 324.594 149.266 324.84C150.31 325.087 151.356 324.44 151.603 323.396Z" fill="black"/>
<path d="M131.099 309.364C132.172 309.364 133.042 308.495 133.042 307.422C133.042 306.349 132.172 305.48 131.099 305.48C130.026 305.48 129.156 306.349 129.156 307.422C129.156 308.495 130.026 309.364 131.099 309.364Z" fill="black"/>
<path d="M156.051 296.812C156.81 296.053 156.81 294.823 156.051 294.065C155.292 293.306 154.062 293.306 153.303 294.065C152.545 294.823 152.545 296.053 153.303 296.812C154.062 297.57 155.292 297.57 156.051 296.812Z" fill="black"/>
<path d="M148.451 289.788C148.623 288.729 147.904 287.731 146.845 287.559C145.786 287.387 144.788 288.107 144.616 289.165C144.444 290.224 145.163 291.222 146.222 291.394C147.281 291.566 148.279 290.847 148.451 289.788Z" fill="black"/>
<path d="M189.895 259.734C190.653 258.975 190.653 257.745 189.895 256.987C189.136 256.228 187.906 256.228 187.147 256.987C186.388 257.745 186.388 258.975 187.147 259.734C187.906 260.492 189.136 260.492 189.895 259.734Z" fill="black"/>
<path d="M198.858 249.246C199.029 248.187 198.31 247.19 197.251 247.018C196.192 246.846 195.194 247.565 195.022 248.624C194.85 249.683 195.57 250.68 196.629 250.852C197.688 251.024 198.686 250.305 198.858 249.246Z" fill="black"/>
<path d="M177.927 251.883C179 251.883 179.87 251.014 179.87 249.941C179.87 248.868 179 247.999 177.927 247.999C176.854 247.999 175.984 248.868 175.984 249.941C175.984 251.014 176.854 251.883 177.927 251.883Z" fill="black"/>
<path d="M186.576 242.275C187.649 242.275 188.518 241.405 188.518 240.333C188.518 239.26 187.649 238.39 186.576 238.39C185.503 238.39 184.633 239.26 184.633 240.333C184.633 241.405 185.503 242.275 186.576 242.275Z" fill="black"/>
<path d="M203.345 238.826C203.592 237.782 202.945 236.736 201.901 236.49C200.856 236.243 199.81 236.89 199.563 237.934C199.317 238.978 199.964 240.024 201.008 240.27C202.052 240.517 203.099 239.87 203.345 238.826Z" fill="black"/>
<path d="M196.869 233.705C197.115 232.661 196.468 231.615 195.424 231.369C194.38 231.123 193.333 231.769 193.087 232.813C192.84 233.857 193.487 234.903 194.531 235.15C195.576 235.396 196.622 234.749 196.869 233.705Z" fill="black"/>
<path d="M230.611 249.36C230.857 248.316 230.21 247.27 229.166 247.024C228.122 246.777 227.076 247.424 226.829 248.468C226.583 249.512 227.229 250.558 228.274 250.804C229.318 251.051 230.364 250.404 230.611 249.36Z" fill="black"/>
<path d="M232.853 234.239C233.099 233.195 232.453 232.149 231.408 231.903C230.364 231.656 229.318 232.303 229.071 233.347C228.825 234.391 229.472 235.437 230.516 235.683C231.56 235.93 232.606 235.283 232.853 234.239Z" fill="black"/>
<path d="M248.863 235.175C249.622 234.417 249.622 233.187 248.863 232.429C248.105 231.67 246.875 231.67 246.116 232.429C245.357 233.187 245.357 234.417 246.116 235.175C246.875 235.934 248.105 235.934 248.863 235.175Z" fill="black"/>
<path d="M244.973 254.183C245.731 253.425 245.731 252.195 244.973 251.437C244.214 250.678 242.984 250.678 242.225 251.437C241.467 252.195 241.467 253.425 242.225 254.183C242.984 254.942 244.214 254.942 244.973 254.183Z" fill="black"/>
<path d="M157.617 167.381L159.158 169.824C161.298 168.475 162.963 166.532 163.973 164.205C163.978 164.194 163.983 164.183 163.987 164.173L161.333 163.034C161.725 162.123 161.968 161.186 162.069 160.249L164.94 160.561C165.213 158.049 164.728 155.537 163.533 153.296L160.984 154.653C160.534 153.808 159.956 153.026 159.265 152.34L161.299 150.29C160.19 149.189 158.894 148.312 157.449 147.685C156.579 147.308 155.669 147.029 154.743 146.857L154.214 149.695C153.25 149.515 152.28 149.487 151.334 149.599L150.998 146.731C148.483 147.026 146.141 148.056 144.228 149.712L146.118 151.895C145.399 152.517 144.766 153.251 144.246 154.087L141.794 152.561C141.468 153.085 141.178 153.639 140.931 154.207C140.17 155.96 139.824 157.814 139.901 159.714L142.787 159.595C142.827 160.565 143.013 161.519 143.333 162.424L140.61 163.386C141.457 165.78 142.982 167.836 145.022 169.329L146.728 166.999C147.3 167.417 147.925 167.78 148.601 168.073C148.827 168.17 149.053 168.258 149.28 168.338L148.331 171.066C150.724 171.898 153.284 171.988 155.731 171.324L154.975 168.537C155.906 168.285 156.797 167.895 157.615 167.38L157.617 167.381ZM148.142 157.337C149.175 154.957 151.942 153.865 154.322 154.898C156.703 155.931 157.795 158.697 156.762 161.077C155.729 163.456 152.962 164.549 150.582 163.516C148.202 162.483 147.109 159.717 148.142 157.337Z" fill="white"/>
<path d="M141.227 152.816C141.311 152.667 141.399 152.519 141.491 152.373L141.68 152.068L144.139 153.597C144.564 152.965 145.06 152.384 145.616 151.867L143.723 149.679L143.995 149.443C145.963 147.741 148.37 146.681 150.959 146.377L151.317 146.335L151.654 149.209C152.414 149.148 153.176 149.173 153.928 149.286L154.458 146.441L154.812 146.507C155.764 146.684 156.702 146.971 157.596 147.36C159.082 148.004 160.414 148.905 161.556 150.039L161.812 150.292L159.773 152.347C160.293 152.901 160.748 153.513 161.13 154.173L163.684 152.813L163.853 153.13C165.081 155.435 165.581 158.018 165.3 160.604L165.261 160.961L162.384 160.648C162.274 161.398 162.08 162.135 161.802 162.845L164.461 163.987L164.305 164.351C163.266 166.745 161.553 168.743 159.351 170.13L159.047 170.322L157.503 167.873C156.845 168.256 156.147 168.562 155.419 168.787L156.177 171.581L155.83 171.675C153.311 172.358 150.678 172.265 148.216 171.408L147.876 171.289L148.828 168.557C148.704 168.509 148.582 168.458 148.462 168.407C147.885 168.157 147.332 167.853 146.813 167.501L145.102 169.835L144.812 169.623C142.714 168.086 141.143 165.972 140.273 163.509L140.153 163.17L142.882 162.205C142.653 161.478 142.508 160.729 142.45 159.972L139.557 160.091L139.542 159.731C139.462 157.777 139.818 155.871 140.601 154.066C140.786 153.639 140.995 153.221 141.224 152.816H141.227ZM141.916 153.062C141.675 153.478 141.455 153.91 141.263 154.353C140.572 155.946 140.233 157.623 140.254 159.341L143.134 159.222L143.149 159.582C143.187 160.509 143.364 161.425 143.676 162.306L143.796 162.645L141.077 163.606C141.877 165.675 143.207 167.468 144.951 168.825L146.655 166.5L146.945 166.713C147.504 167.122 148.111 167.469 148.75 167.747C148.962 167.839 149.183 167.925 149.404 168.001L149.744 168.12L148.797 170.842C150.907 171.508 153.139 171.587 155.295 171.069L154.54 168.287L154.888 168.193C155.787 167.95 156.642 167.574 157.429 167.078L157.733 166.886L159.271 169.324C161.114 168.086 162.572 166.38 163.513 164.361L160.864 163.224L161.006 162.893C161.377 162.034 161.616 161.133 161.715 160.213L161.754 159.855L164.62 160.167C164.795 157.965 164.37 155.775 163.385 153.788L160.84 155.143L160.67 154.826C160.232 154.002 159.675 153.253 159.016 152.599L158.76 152.345L160.79 150.3C159.771 149.348 158.602 148.581 157.311 148.021C156.576 147.702 155.812 147.457 155.034 147.288L154.506 150.121L154.152 150.055C153.239 149.885 152.305 149.854 151.379 149.962L151.022 150.004L150.686 147.141C148.496 147.462 146.455 148.362 144.742 149.759L146.629 151.938L146.357 152.173C145.654 152.781 145.047 153.49 144.556 154.282L144.366 154.587L141.918 153.065L141.916 153.062ZM148.057 156.705C149.316 154.49 152.078 153.53 154.467 154.567C155.707 155.105 156.663 156.092 157.159 157.349C157.655 158.605 157.632 159.979 157.095 161.218C156.556 162.458 155.569 163.413 154.312 163.909C153.055 164.405 151.68 164.382 150.441 163.845C149.201 163.308 148.246 162.32 147.75 161.063C147.254 159.806 147.277 158.432 147.814 157.193C147.887 157.024 147.968 156.862 148.057 156.705ZM156.225 161.35C156.302 161.216 156.371 161.077 156.434 160.931C156.895 159.869 156.915 158.69 156.489 157.612C156.064 156.535 155.243 155.687 154.18 155.227C153.118 154.765 151.938 154.746 150.861 155.172C149.783 155.597 148.935 156.417 148.474 157.48C148.013 158.542 147.993 159.722 148.42 160.799C148.845 161.876 149.665 162.724 150.728 163.184C152.778 164.073 155.146 163.251 156.226 161.35H156.225Z" fill="black"/>
<path d="M147.444 215.301C149.837 217.23 152.541 218.699 155.482 219.671L155.519 219.684L156.724 216.02C158.628 216.646 160.556 216.995 162.465 217.088L162.276 220.941C165.353 221.092 168.406 220.688 171.348 219.742L170.167 216.07C172.028 215.472 173.803 214.625 175.438 213.556L177.549 216.784C180.138 215.093 182.372 212.975 184.191 210.491L181.078 208.213C182.21 206.669 183.152 204.949 183.861 203.08L187.469 204.447C187.6 204.101 187.726 203.747 187.842 203.394C188.694 200.82 189.13 198.151 189.143 195.462L185.285 195.446C185.293 193.471 185.03 191.525 184.521 189.656L188.244 188.642C187.433 185.67 186.111 182.895 184.311 180.392L181.179 182.644C180.046 181.069 178.699 179.639 177.163 178.403L179.582 175.398C177.194 173.476 174.494 172.01 171.561 171.04L171.545 171.035L170.334 174.696C168.43 174.069 166.502 173.72 164.593 173.624L164.785 169.771C161.709 169.618 158.655 170.019 155.711 170.963L156.89 174.636C155.027 175.233 153.252 176.079 151.616 177.147L149.507 173.917C146.917 175.607 144.682 177.722 142.86 180.204L145.971 182.485C144.839 184.03 143.895 185.747 143.185 187.616L139.578 186.246C139.445 186.598 139.317 186.959 139.198 187.318C138.349 189.885 137.911 192.547 137.898 195.23L141.757 195.249C141.746 197.223 142.008 199.17 142.515 201.038L138.792 202.049C139.6 205.022 140.921 207.798 142.718 210.302L145.852 208.053C146.984 209.629 148.33 211.06 149.865 212.298L147.443 215.301H147.444ZM153.484 192.039C155.316 186.497 161.295 183.489 166.838 185.322C172.38 187.153 175.389 193.131 173.556 198.672C171.724 204.213 165.745 207.221 160.203 205.389C154.66 203.557 151.651 197.58 153.484 192.039Z" fill="#1E7ADE"/>
<path d="M148.191 190.291C149.544 186.197 152.411 182.877 156.262 180.939C160.115 179.001 164.491 178.679 168.584 180.032C172.679 181.385 176 184.251 177.938 188.102C179.876 191.953 180.198 196.328 178.845 200.42C177.492 204.514 174.625 207.834 170.774 209.772C166.921 211.709 162.546 212.031 158.452 210.679C154.358 209.326 151.036 206.459 149.098 202.609C147.16 198.758 146.838 194.383 148.191 190.291ZM178.631 200.349C179.965 196.314 179.648 192 177.737 188.203C175.826 184.407 172.551 181.581 168.514 180.247C164.478 178.912 160.163 179.23 156.365 181.14C152.568 183.051 149.742 186.325 148.407 190.36C147.072 194.396 147.39 198.71 149.3 202.506C151.211 206.303 154.486 209.128 158.523 210.463C162.559 211.797 166.874 211.48 170.672 209.569C174.47 207.659 177.296 204.385 178.631 200.349Z" fill="#1E7ADE"/>
<path d="M348.296 296.172H358.919L360.512 275.707H346.703L348.296 296.172Z" fill="white"/>
<path d="M347.962 296.532H359.25L360.899 275.347H346.312L347.962 296.532ZM358.584 295.812H348.628L347.091 276.067H360.121L358.584 295.812Z" fill="black"/>
<path d="M356.321 281.914H347.188L347.817 289.997H355.826L356.321 281.914Z" fill="white"/>
<path d="M347.481 290.358H356.162L356.702 281.554H346.797L347.483 290.358H347.481ZM355.484 289.638H348.148L347.574 282.274H355.935L355.484 289.638Z" fill="black"/>
<path d="M346.035 277.096H361.18V274.587H346.035V277.096Z" fill="black"/>
<path d="M345.443 277.411H361.758V275.842H345.443V277.411Z" fill="black"/>
<path d="M353.14 390.018L349.026 397.372L335.198 396.859L333.375 392.657L340.657 381.498L353.14 390.018Z" fill="white"/>
<path d="M349.232 397.74L353.615 389.906L340.557 380.994L332.969 392.623L334.958 397.21L349.233 397.74H349.232ZM352.665 390.129L348.818 397.004L335.437 396.507L333.782 392.691L340.757 382.003L352.664 390.129H352.665Z" fill="black"/>
<path d="M307.445 403.318L307.458 406.467L351.074 406.64V403.109L307.445 403.318Z" fill="black"/>
<path d="M307.397 404.394C307.397 404.394 306.801 397.072 316.75 395.52C326.699 393.969 334.639 390.017 334.639 390.017C334.639 390.017 336.408 395.313 342.533 395.669C349.482 396.072 346.917 392.935 351.561 393.206L351.153 403.711L307.399 404.394H307.397Z" fill="black"/>
<path d="M307.397 404.394L320.569 404.273L320.971 394.683C319.719 394.924 318.207 395.293 316.75 395.52C306.801 397.072 307.397 404.394 307.397 404.394Z" fill="#1E7ADE"/>
<path d="M329.807 391.947C329.885 391.895 329.977 391.854 330.08 391.83C330.495 391.729 330.928 391.929 331.048 392.274L332.641 396.859C332.761 397.204 332.522 397.565 332.108 397.666C331.693 397.766 331.26 397.566 331.14 397.221L329.547 392.636C329.456 392.377 329.569 392.107 329.807 391.947Z" fill="#1E7ADE"/>
<path d="M326.909 392.646C326.986 392.593 327.079 392.552 327.182 392.528C327.597 392.427 328.03 392.627 328.15 392.972L329.743 397.557C329.863 397.902 329.624 398.263 329.209 398.364C328.794 398.464 328.361 398.264 328.241 397.919L326.648 393.334C326.558 393.075 326.671 392.805 326.909 392.647V392.646Z" fill="#1E7ADE"/>
<path d="M323.987 393.35C324.065 393.298 324.157 393.257 324.26 393.233C324.675 393.132 325.108 393.332 325.228 393.677L326.821 398.262C326.941 398.607 326.702 398.968 326.287 399.069C325.872 399.169 325.439 398.969 325.319 398.624L323.726 394.039C323.636 393.779 323.749 393.51 323.987 393.35Z" fill="#1E7ADE"/>
<path d="M357.676 391.223C357.676 391.223 373.946 343.392 382.417 342.272C402.189 339.66 385.073 311.708 370.751 328.075C356.186 344.722 337.568 384.551 337.568 384.551C333.317 390.79 357.677 391.222 357.677 391.222L357.676 391.223Z" fill="#191919"/>
<path d="M338.29 389.187L335.364 396.411L324.916 399.538L319.844 392.502L326.698 380.496L338.29 389.187Z" fill="white"/>
<path d="M324.769 399.958L335.629 396.707L338.724 389.065L326.585 379.962L319.414 392.523L324.77 399.956L324.769 399.958ZM335.092 396.116L325.054 399.12L320.268 392.479L326.805 381.028L337.848 389.308L335.091 396.116H335.092Z" fill="black"/>
<path d="M292.977 403.318L292.989 406.466L336.605 406.64V403.109L292.977 403.318Z" fill="black"/>
<path d="M292.929 404.394C292.929 404.394 292.332 397.072 302.281 395.52C312.231 393.969 320.622 390.349 320.622 390.349C320.622 390.349 321.94 395.313 328.064 395.669C335.014 396.072 332.448 392.935 337.092 393.206L336.684 403.711L292.93 404.394H292.929Z" fill="black"/>
<path d="M292.929 404.394L306.101 404.273L306.502 394.683C305.25 394.924 303.738 395.293 302.281 395.52C292.332 397.072 292.929 404.394 292.929 404.394Z" fill="#1E7ADE"/>
<path d="M315.338 391.947C315.416 391.895 315.509 391.854 315.612 391.83C316.026 391.729 316.459 391.929 316.579 392.274L318.173 396.859C318.293 397.204 318.054 397.565 317.639 397.666C317.224 397.766 316.791 397.566 316.671 397.221L315.078 392.636C314.988 392.377 315.101 392.107 315.338 391.947Z" fill="#1E7ADE"/>
<path d="M312.44 392.645C312.518 392.593 312.61 392.552 312.713 392.528C313.128 392.427 313.561 392.627 313.681 392.972L315.274 397.557C315.394 397.902 315.155 398.263 314.74 398.364C314.326 398.464 313.892 398.264 313.772 397.919L312.179 393.334C312.089 393.075 312.202 392.805 312.44 392.647V392.645Z" fill="#1E7ADE"/>
<path d="M309.518 393.35C309.596 393.298 309.688 393.257 309.791 393.233C310.206 393.132 310.639 393.332 310.759 393.677L312.352 398.262C312.472 398.607 312.233 398.968 311.819 399.069C311.404 399.169 310.971 398.969 310.851 398.624L309.258 394.039C309.167 393.779 309.28 393.51 309.518 393.35Z" fill="#1E7ADE"/>
<path d="M348.925 391.889C348.925 391.889 350.853 388.852 371.873 352.923C381.942 335.711 413.448 343.479 436.631 341.612C457.258 339.951 457.26 309.49 457.26 309.49C457.26 309.49 378.22 309.69 358.944 330.542C342.921 347.876 325.087 382.54 325.087 382.54C320.835 388.779 348.924 391.89 348.924 391.89L348.925 391.889Z" fill="#191919"/>
<path d="M394.03 300.272L378.604 297.93C378.394 297.904 376.962 295.377 376.835 295.205C376.835 295.205 374.775 294.599 372.371 293.891C369.968 293.184 364.554 295.523 364.554 295.523C364.141 295.633 362.107 295.818 362.215 296.231L364.39 297.929C367.031 298.938 370.202 295.462 376.286 300.756C378.4 302.594 395.193 300.35 394.029 300.271L394.03 300.272Z" fill="#F7F8F9"/>
<path d="M364.551 298.167C365.379 298.41 366.239 298.275 367.223 298.122C369.402 297.782 372.115 297.358 376.175 300.888C376.674 301.322 377.877 301.567 379.853 301.634C381.419 301.688 383.418 301.626 385.795 301.454C389.732 301.167 393.89 300.616 394.169 300.446C394.241 300.403 394.274 300.324 394.256 300.247C394.235 300.16 394.166 300.112 394.05 300.102L378.66 297.766C378.452 297.581 377.627 296.191 377.312 295.66C377.109 295.319 377.011 295.154 376.973 295.105L376.939 295.058L372.421 293.728C370.019 293.022 364.859 295.208 364.499 295.361C364.403 295.385 364.212 295.415 363.992 295.45C363.03 295.603 362.28 295.742 362.091 296.032C362.042 296.108 362.027 296.192 362.05 296.277L362.064 296.333L364.305 298.082L364.329 298.091C364.403 298.12 364.477 298.144 364.551 298.167ZM371.767 297.889C371.528 297.819 371.29 297.76 371.051 297.712C369.537 297.409 368.279 297.606 367.169 297.779C366.156 297.938 365.279 298.075 364.476 297.777L362.429 296.18C362.495 296.138 362.644 296.068 362.976 295.988C363.315 295.906 363.72 295.842 364.046 295.79C364.294 295.751 364.489 295.719 364.599 295.691L364.623 295.683C364.677 295.66 370.007 293.377 372.322 294.058L376.725 295.354C376.78 295.442 376.895 295.634 377.015 295.835C378.276 297.96 378.424 298.081 378.58 298.102L393.128 300.31C391.741 300.526 388.879 300.884 385.674 301.114C378.673 301.618 376.859 301.024 376.401 300.626C374.8 299.234 373.276 298.333 371.767 297.889Z" fill="#010101"/>
<path d="M378.492 295.417C370.748 302.596 383.933 305.214 383.933 305.214C410.474 308.657 425.367 291.674 425.686 273.165C425.783 267.538 399.409 267.808 400.91 271.015C412.518 295.826 400.221 296.59 378.492 295.418V295.417Z" fill="#1E7ADE"/>
<path d="M455.122 327.421C462.868 305.66 454.749 268.468 431.585 258.021C412.476 249.403 402.313 259.354 400.908 263.984C398.28 272.636 403.329 273.376 413.292 283.338C423.255 293.298 414.514 309.46 414.514 309.46C426.574 319.235 435.942 334.107 455.122 327.422V327.421Z" fill="#1E7ADE"/>
<path d="M342.727 298.159L377.487 298.267L377.434 295.981L343.708 295.972L342.727 298.159Z" fill="#F7F8F9"/>
<path d="M342.461 298.33L377.666 298.44L377.604 295.807L343.598 295.798L342.461 298.33ZM377.312 298.093L342.993 297.986L343.821 296.144L377.265 296.153L377.311 298.093H377.312Z" fill="#010101"/>
<path d="M332.234 260.644L342.674 298.234L343.708 295.972L334.383 260.681L332.234 260.644Z" fill="#F7F8F9"/>
<path d="M342.637 298.404L343.894 295.988L343.878 295.928L334.519 260.512L332.008 260.469L342.636 298.405L342.637 298.404ZM343.528 295.956L342.717 297.731L332.466 260.821L334.252 260.851L343.53 295.956H343.528Z" fill="#010101"/>
<path d="M318.477 261.637L328.642 297.208L342.731 298.159L332.787 260.664L318.477 261.637Z" fill="#F7F8F9"/>
<path d="M328.732 298.158L342.959 298.347L342.897 298.114L332.916 260.482L318.25 261.478L318.308 261.684L328.732 298.158ZM342.5 297.97L328.969 297.731L318.7 261.795L332.655 260.846L342.501 297.97H342.5Z" fill="#010101"/>
<path d="M330.396 281.628C331.26 281.493 331.772 280.181 331.54 278.696C331.308 277.212 330.42 276.118 329.556 276.253C328.692 276.388 328.18 277.7 328.412 279.185C328.644 280.669 329.532 281.763 330.396 281.628Z" fill="#F7F8F9"/>
<path d="M330.164 281.818C330.249 281.824 330.335 281.821 330.42 281.808C330.901 281.733 331.297 281.353 331.537 280.74C331.765 280.158 331.825 279.426 331.709 278.679C331.458 277.076 330.5 275.939 329.527 276.091C328.555 276.243 327.988 277.617 328.239 279.22C328.356 279.968 328.637 280.647 329.031 281.132C329.373 281.552 329.767 281.79 330.165 281.818H330.164ZM329.753 276.426C330.456 276.477 331.169 277.472 331.367 278.732C331.474 279.42 331.421 280.09 331.215 280.615C331.022 281.109 330.72 281.412 330.366 281.468C330.012 281.522 329.632 281.327 329.297 280.915C328.942 280.476 328.686 279.856 328.579 279.168C328.365 277.804 328.823 276.551 329.579 276.433C329.636 276.423 329.694 276.421 329.752 276.426H329.753Z" fill="#010101"/>
<path d="M398.678 254.12C402.023 256.108 405.587 255.735 407.389 252.704C409.191 249.672 407.941 245.602 404.596 243.614C401.251 241.626 394.758 244.381 394.758 244.381C394.758 244.381 395.333 252.133 398.678 254.12Z" fill="black"/>
<path d="M409.532 256.292L405.05 251.426L402.305 258.43L404.061 260.519C404.061 260.519 405.342 265.25 408.264 264.218C411.187 263.186 410.739 258.315 409.532 256.292Z" fill="white"/>
<path d="M409.356 263.802C409.773 263.425 410.1 262.924 410.32 262.311C411.029 260.352 410.553 257.606 409.707 256.187L409.696 256.169L404.979 251.047L402.07 258.469L403.876 260.617C403.983 260.992 404.742 263.451 406.342 264.291C406.964 264.618 407.633 264.658 408.332 264.412C408.716 264.276 409.059 264.072 409.356 263.803V263.802ZM409.366 256.415C410.158 257.759 410.6 260.333 409.936 262.172C409.596 263.114 409.009 263.737 408.196 264.025C407.608 264.232 407.049 264.2 406.532 263.928C404.991 263.119 404.264 260.491 404.258 260.465L404.246 260.421L402.539 258.391L405.12 251.805L409.367 256.415H409.366Z" fill="black"/>
<path d="M400.378 246.88C401.356 248.986 403.395 249.497 405.601 248.76C406.297 248.579 407.111 249.172 407.458 250.138C407.755 250.965 407.615 251.806 407.163 252.227C407.637 254.933 406.563 257.483 404.46 258.256C402.027 259.152 399.141 257.331 398.014 254.189C396.887 251.047 397.944 247.775 400.377 246.879L400.378 246.88Z" fill="white"/>
<path d="M405.817 257.665C406.29 257.237 406.68 256.69 406.963 256.049C407.446 254.951 407.592 253.622 407.38 252.297C407.842 251.79 407.951 250.912 407.648 250.069C407.264 248.999 406.362 248.351 405.548 248.562L405.534 248.566C403.251 249.328 401.438 248.682 400.562 246.794L400.483 246.623L400.306 246.688C397.772 247.621 396.657 251.016 397.82 254.259C398.474 256.08 399.722 257.532 401.245 258.243C402.354 258.76 403.49 258.831 404.53 258.448C405.003 258.275 405.436 258.008 405.818 257.665H405.817ZM405.657 248.955C406.253 248.806 406.957 249.354 407.263 250.206C407.524 250.933 407.424 251.702 407.021 252.078L406.94 252.153L406.959 252.263C407.422 254.905 406.341 257.346 404.388 258.064C403.453 258.408 402.426 258.342 401.418 257.871C399.993 257.206 398.821 255.839 398.204 254.119C397.144 251.164 398.074 248.083 400.275 247.139C401.267 249.072 403.263 249.75 405.657 248.954V248.955Z" fill="black"/>
<path d="M397.698 254.317C397.613 253.991 397.421 253.129 397.352 252.812C397.942 253.667 398.901 254.944 399.578 255.385C400.254 255.826 400.586 255.101 401.292 254.817C402.282 254.42 403.552 254.582 404.066 253.774C405.265 251.883 404.875 248.939 404.875 248.939C404.917 248.916 405.237 248.671 405.596 248.76C405.596 248.76 405.768 250.099 406.413 251.219C406.579 251.505 406.935 252.022 407.185 252.2C407.176 252.209 407.167 252.219 407.158 252.229C408.317 255.548 406.161 259.745 404.059 260.519C401.626 261.414 398.514 257.443 397.697 254.318L397.698 254.317Z" fill="black"/>
<path d="M403.849 254.872C403.849 254.872 402.973 255.703 401.98 256.018C400.987 256.334 400.602 255.907 400.602 255.907C400.602 255.907 401.413 257.149 402.445 256.876C403.476 256.603 403.849 254.872 403.849 254.872Z" fill="white"/>
<path d="M399.106 253.625C399.79 253.008 399.809 251.914 399.152 251.187C398.494 250.459 397.403 250.368 396.721 250.984C396.038 251.601 396.018 252.695 396.675 253.422C397.334 254.15 398.424 254.24 399.106 253.625ZM396.935 251.221C397.487 250.722 398.376 250.803 398.915 251.4C399.455 251.998 399.444 252.89 398.892 253.388C398.341 253.887 397.451 253.806 396.912 253.209C396.373 252.611 396.383 251.719 396.935 251.221Z" fill="black"/>
<path d="M403.435 252.615C404.25 251.879 404.275 250.573 403.49 249.704C402.705 248.834 401.404 248.727 400.589 249.462C399.774 250.198 399.749 251.504 400.534 252.374C401.319 253.243 402.621 253.35 403.435 252.615ZM400.844 249.746C401.503 249.151 402.563 249.247 403.208 249.959C403.853 250.672 403.84 251.737 403.181 252.332C402.521 252.928 401.461 252.832 400.816 252.119C400.172 251.406 400.184 250.341 400.844 249.746Z" fill="black"/>
<path d="M400.149 251.215L399.234 251.524L399.336 251.826L400.251 251.517L400.149 251.215Z" fill="black"/>
<path d="M405.505 248.616L403.5 249.955L403.677 250.22L405.682 248.881L405.505 248.616Z" fill="black"/>
<path d="M400.955 251.671C401.104 251.835 401.357 251.848 401.521 251.7C401.685 251.551 401.698 251.297 401.549 251.134C401.401 250.969 401.147 250.957 400.984 251.105C400.819 251.254 400.807 251.508 400.955 251.671Z" fill="black"/>
<path d="M397.916 252.536C398.064 252.7 398.318 252.713 398.481 252.564C398.645 252.416 398.659 252.162 398.51 251.999C398.361 251.835 398.108 251.822 397.944 251.97C397.781 252.119 397.767 252.372 397.916 252.536Z" fill="black"/>
<path d="M401.389 254.483C401.462 254.416 401.478 254.306 401.424 254.221C401.363 254.126 401.236 254.099 401.141 254.159C400.821 254.364 400.268 254.587 400.094 254.414C399.933 254.253 399.945 253.193 400.118 252.099C400.137 251.987 400.06 251.883 399.949 251.865C399.837 251.847 399.733 251.923 399.715 252.034C399.632 252.555 399.393 254.288 399.805 254.702C400.28 255.177 401.253 254.573 401.362 254.503C401.371 254.498 401.38 254.491 401.388 254.483H401.389Z" fill="black"/>
<path d="M414.759 309.6C418.916 302.22 418.614 295.787 417.626 291.69C416.495 286.989 413.805 282.696 410.43 280.205C406.486 277.293 404.175 274.916 402.933 273.437C401.587 271.834 401.167 270.907 401.164 270.898L400.641 271.129C400.709 271.283 402.396 274.984 410.09 280.666C413.36 283.08 415.969 287.251 417.071 291.825C418.033 295.822 418.327 302.103 414.261 309.321L414.759 309.601V309.6Z" fill="black"/>
<path d="M448.971 327.312C449.329 326.451 449.643 325.448 449.907 324.33L449.351 324.199C449.093 325.286 448.788 326.26 448.443 327.094L448.971 327.313V327.312ZM450.462 321.269C450.593 320.298 450.694 319.259 450.764 318.181L450.194 318.145C450.125 319.209 450.025 320.234 449.896 321.193L450.462 321.269ZM450.878 315.085C450.881 314.838 450.883 314.588 450.883 314.334C450.883 313.576 450.87 312.786 450.845 311.989L450.274 312.007C450.299 312.798 450.312 313.581 450.312 314.334C450.312 314.587 450.31 314.835 450.307 315.079L450.878 315.085ZM450.121 308.936L450.691 308.898C450.624 307.899 450.538 306.861 450.436 305.816L449.867 305.871C449.969 306.911 450.053 307.943 450.121 308.936ZM449.528 302.813L450.095 302.74C449.964 301.72 449.802 300.689 449.613 299.677L449.051 299.781C449.237 300.783 449.397 301.802 449.527 302.812L449.528 302.813ZM448.407 296.782L448.962 296.646C448.719 295.649 448.442 294.642 448.143 293.656L447.596 293.822C447.893 294.798 448.165 295.794 448.408 296.782H448.407ZM446.623 290.911L447.16 290.715C446.807 289.747 446.422 288.777 446.017 287.833L445.491 288.058C445.892 288.993 446.273 289.953 446.623 290.912V290.911ZM444.204 285.27L444.716 285.016C444.255 284.085 443.765 283.163 443.259 282.277L442.763 282.559C443.263 283.435 443.749 284.347 444.206 285.269L444.204 285.27ZM441.161 279.942L441.639 279.628C440.565 277.996 439.842 277.13 439.813 277.094L439.375 277.461C439.382 277.47 440.109 278.341 441.162 279.942H441.161Z" fill="black"/>
<path d="M400.547 346.983H449.384V341.364H400.547V346.983ZM448.664 346.263H401.267V342.084H448.664V346.263Z" fill="black"/>
<path d="M448.538 347.814C448.689 347.787 452.278 347.121 455.919 345.079C460.842 342.32 463.444 338.368 463.444 333.653V286.778H462.004V333.653C462.004 337.865 459.731 341.282 455.247 343.805C451.814 345.739 448.316 346.391 448.281 346.398L448.538 347.814Z" fill="black"/>
<path d="M401.471 346.576L389.383 405.974L390.794 406.261L402.882 346.863L401.471 346.576Z" fill="black"/>
<path d="M449.107 346.552L447.711 346.904L462.829 406.809L464.225 406.457L449.107 346.552Z" fill="black"/>
<path d="M460.164 393.813H392.773V395.253H460.164V393.813Z" fill="black"/>
<path d="M313.573 303.514H405.539V298.343H313.573V303.514Z" fill="white"/>
<path d="M313.211 303.873H405.897V297.982H313.211V303.873ZM405.177 303.154H313.931V298.702H405.177V303.154Z" fill="black"/>
<path d="M397.055 303.583V406.64H399.3V303.583" fill="white"/>
<path d="M396.695 407H399.661V303.583H398.941V406.28H397.415V303.583H396.695V407Z" fill="black"/>
<path d="M318.578 303.583V406.64H320.488V303.583" fill="white"/>
<path d="M318.219 407H320.849V303.583H320.13V406.28H318.94V303.583H318.219V407Z" fill="black"/>
<path d="M407.33 296.432C407.33 296.432 387.209 296.398 386.062 296.323C384.914 296.247 381.361 292.36 381.361 292.36C380.453 291.324 378.957 291.037 377.73 291.662L370.306 294.563C369.668 294.812 369.352 295.532 369.601 296.169L370.601 298.739C370.841 299.354 371.575 299.607 372.142 299.27L373.382 298.533L377.364 298.772C378.544 299.066 380.007 302.135 383.502 302.364C386.997 302.594 418.095 303.389 418.095 303.389C419.372 303.429 408.785 296.368 407.329 296.433L407.33 296.432Z" fill="#F7F8F9"/>
<path d="M383.491 302.536C386.949 302.763 417.779 303.552 418.091 303.56C418.241 303.565 418.312 303.499 418.345 303.443C418.394 303.359 418.385 303.261 418.318 303.149C417.963 302.562 415.37 300.735 413.111 299.286C411.989 298.566 408.26 296.223 407.327 296.259C406.957 296.259 387.197 296.223 386.073 296.149C385.189 296.091 382.465 293.309 381.49 292.243C380.532 291.15 378.957 290.847 377.659 291.503L370.243 294.401C369.518 294.684 369.158 295.506 369.44 296.231L370.44 298.801C370.572 299.141 370.847 299.405 371.193 299.524C371.539 299.643 371.918 299.604 372.232 299.418L373.426 298.708L377.338 298.943C377.693 299.041 378.125 299.46 378.624 299.945C379.681 300.974 381.127 302.381 383.491 302.537V302.536ZM417.929 303.211C415.43 303.147 386.83 302.409 383.514 302.191C381.277 302.043 379.883 300.687 378.865 299.696C378.301 299.148 377.856 298.715 377.406 298.603L377.39 298.6H377.374L373.339 298.356L372.054 299.121C371.826 299.255 371.553 299.284 371.304 299.197C371.055 299.111 370.857 298.921 370.761 298.675L369.761 296.106C369.547 295.557 369.819 294.937 370.368 294.722L377.798 291.818L377.806 291.814C378.965 291.224 380.373 291.494 381.23 292.472C381.602 292.878 384.867 296.416 386.049 296.494C387.189 296.569 406.507 296.602 407.33 296.604H407.338C407.88 296.58 410.184 297.811 413.07 299.67C414.337 300.487 415.543 301.313 416.465 301.997C417.398 302.69 417.776 303.041 417.929 303.21V303.211Z" fill="#010101"/>
<path d="M375.831 294.161L369.562 296.343L369.676 296.67L375.945 294.488L375.831 294.161Z" fill="#010101"/>
<path d="M376.236 296.934L372.671 296.698L370.336 298.067" fill="#F7F8F9"/>
<path d="M370.425 298.217L372.714 296.874L376.227 297.106L376.25 296.761L372.63 296.522L370.25 297.919L370.425 298.217Z" fill="#010101"/>
<path d="M386.555 296.337C380.568 305.037 385.763 308.377 385.763 308.377C398.425 314.422 414.134 314.794 422.193 310.772C438.134 302.819 446.34 266.921 427.892 258.02C419.072 253.764 425.169 278.881 412.15 292.48C407.396 297.447 397.525 297.02 386.555 296.336V296.337Z" fill="#1E7ADE"/>
<path d="M390.894 296.869C395.52 297.173 399.092 297.121 402.149 296.719C407.118 296.067 410.697 294.452 413.093 291.783C415.046 289.608 416.666 286.818 417.909 283.491C418.901 280.835 419.656 277.832 420.155 274.566C421.002 269.007 420.805 264.548 420.803 264.504L420.458 264.52C420.46 264.564 420.655 268.995 419.812 274.52C419.317 277.761 418.567 280.74 417.583 283.373C416.356 286.658 414.758 289.409 412.835 291.553C410.497 294.158 406.986 295.736 402.103 296.376C398.177 296.892 393.387 296.826 386.572 296.164L386.539 296.508C388.091 296.659 389.538 296.778 390.894 296.868V296.869Z" fill="#010101"/>
<path d="M418.685 312.429C423.788 310.323 428.094 306.751 431.483 301.814C434.191 297.87 436.322 293.05 437.819 287.491C439.149 282.548 439.722 277.921 439.967 274.911C440.234 271.647 440.185 269.522 440.185 269.501L439.839 269.51C439.842 269.594 440.019 277.999 437.484 287.411C435.997 292.932 433.882 297.714 431.196 301.624C427.846 306.504 423.592 310.032 418.555 312.111L418.686 312.431L418.685 312.429Z" fill="#010101"/>
<path d="M349.272 392.088C349.488 391.71 370.945 354.238 377.795 347.389L377.229 346.824C370.304 353.748 349.462 390.146 348.578 391.692L349.273 392.088H349.272Z" fill="white"/>
<path d="M330.843 164.351L332.912 157.76L326.271 149.971L325.264 142.954L324.766 143.619L325.836 150.551L331.517 157.118L328.715 163.359L330.843 164.351Z" fill="black"/>
<path d="M321.256 177.145L315.51 180.979L306.168 176.794L299.148 177.801L299.647 177.136L306.602 176.215L314.501 179.823L319.706 175.381L321.256 177.145Z" fill="black"/>
<path d="M333.352 165.72L338.691 161.579L346.262 164.437L352.392 162.765L351.894 163.43L345.828 165.016L339.432 162.537L334.494 167.178L333.352 165.72Z" fill="black"/>
<path d="M323.758 178.514L321.281 184.799L326.152 191.261L326.268 197.612L326.767 196.947L326.586 190.681L322.409 185.242L325.478 179.199L323.758 178.514Z" fill="black"/>
<path d="M323.921 159.165L325.989 152.575L319.348 144.787L318.342 137.769L317.844 138.434L318.913 145.366L324.594 151.933L321.792 158.173L323.921 159.165Z" fill="black"/>
<path d="M314.334 171.959L308.588 175.794L299.246 171.609L292.227 172.615L292.725 171.95L299.68 171.03L307.58 174.637L312.784 170.196L314.334 171.959Z" fill="black"/>
<path d="M343.135 181.508C343.159 181.521 345.561 182.792 347.877 181.173C349.355 180.143 350.65 179.753 351.726 180.018C352.802 180.283 353.24 181.107 353.259 181.143L352.939 181.309C352.935 181.302 352.549 180.588 351.633 180.367C350.662 180.131 349.468 180.503 348.083 181.469C345.577 183.216 342.987 181.838 342.961 181.825L343.134 181.508H343.135Z" fill="black"/>
<path d="M341.725 183.477C341.745 183.497 343.798 185.595 342.822 188.491C342.282 190.092 342.262 191.342 342.76 192.207C343.231 193.025 344.024 193.194 344.032 193.196L343.962 193.549C343.924 193.541 343.009 193.353 342.453 192.394C341.896 191.435 341.905 190.084 342.48 188.376C343.385 185.69 341.488 183.751 341.469 183.731L341.724 183.477H341.725Z" fill="black"/>
<path d="M341.986 182.178C341.337 181.692 341.092 180.923 341.438 180.46C341.785 179.999 342.592 180.018 343.241 180.504C343.89 180.989 344.134 181.758 343.788 182.221C343.442 182.684 342.635 182.663 341.986 182.178Z" fill="black"/>
<path d="M340.416 184.27C339.766 183.784 339.522 183.015 339.868 182.552C340.214 182.09 341.021 182.11 341.67 182.596C342.32 183.081 342.564 183.85 342.218 184.313C341.872 184.775 341.065 184.755 340.416 184.27Z" fill="black"/>
<path d="M335.533 184.433C333.04 182.565 332.447 179.145 334.209 176.794C335.972 174.443 339.421 174.051 341.914 175.919C344.408 177.787 343.97 180.435 342.208 182.785C340.446 185.137 338.026 186.3 335.534 184.432L335.533 184.433Z" fill="black"/>
<path d="M335.844 184.843L342.406 176.088C341.989 173.081 340.126 169.946 337.091 167.672C331.92 163.799 325.306 163.889 322.319 167.876C319.332 171.862 321.102 178.233 326.272 182.106C329.307 184.379 332.84 185.286 335.844 184.842V184.843Z" fill="black"/>
<path d="M327.568 183.14L338.435 168.641C338.014 168.183 337.567 167.723 337.09 167.261C323.833 154.416 305.933 154.324 305.933 154.324L304.773 155.871C304.773 155.871 310.205 172.644 325.899 182.19C326.465 182.534 327.02 182.849 327.567 183.14H327.568Z" fill="#FF7DCE"/>
<path d="M332.89 176.006L333.203 175.588L305.519 154.845L305.206 155.263L332.89 176.006Z" fill="black"/>
<path d="M338.358 168.594L327.492 183.094L327.685 183.239L338.551 168.739L338.358 168.594Z" fill="white"/>
<path d="M342.309 176.013L335.75 184.77L335.943 184.914L342.502 176.158L342.309 176.013Z" fill="white"/>
<path d="M206.641 118.988L203.336 122.989L205.753 130.287L204.467 135.455L205.002 135.134L206.219 130.007L204.124 123.83L207.841 120.28L206.641 118.988Z" fill="black"/>
<path d="M216.938 112.797L222.022 111.753L227.338 117.308L232.507 118.595L231.972 118.916L226.872 117.589L222.396 112.844L217.517 114.462L216.938 112.797Z" fill="black"/>
<path d="M205.288 117.326L200.402 118.697L195.942 114.567L191.203 113.996L191.738 113.674L196.407 114.286L200.157 117.821L204.907 115.988L205.288 117.326Z" fill="black"/>
<path d="M215.582 111.136L219.083 107.462L217.522 101.588L219.238 97.1347L218.704 97.4569L217.057 101.868L218.424 106.835L214.578 110.172L215.582 111.136Z" fill="black"/>
<path d="M209.991 124.554L206.688 128.555L209.105 135.853L207.819 141.021L208.354 140.7L209.571 135.573L207.476 129.396L211.192 125.846L209.991 124.554Z" fill="black"/>
<path d="M220.289 118.363L225.372 117.319L230.69 122.874L235.859 124.161L235.324 124.482L230.223 123.155L225.747 118.411L220.868 120.028L220.289 118.363Z" fill="black"/>
<path d="M202.946 103.572C202.934 103.556 201.621 101.992 199.551 102.462C198.231 102.762 197.22 102.666 196.545 102.177C195.872 101.688 195.8 100.991 195.797 100.961L196.067 100.936C196.067 100.942 196.134 101.547 196.709 101.962C197.317 102.399 198.254 102.479 199.49 102.198C201.728 101.691 203.142 103.383 203.155 103.4L202.945 103.572H202.946Z" fill="black"/>
<path d="M204.489 102.601C204.48 102.58 203.647 100.539 205.145 98.8005C205.974 97.8397 206.342 96.9748 206.24 96.2321C206.144 95.5295 205.64 95.1879 205.634 95.1845L205.783 94.9582C205.808 94.9742 206.391 95.365 206.506 96.1887C206.623 97.0136 206.233 97.9516 205.35 98.9765C203.96 100.59 204.73 102.476 204.738 102.494L204.489 102.599V102.601Z" fill="black"/>
<path d="M203.937 103.43C204.251 103.952 204.205 104.556 203.832 104.779C203.459 105.002 202.904 104.761 202.591 104.239C202.277 103.717 202.324 103.113 202.696 102.89C203.068 102.666 203.624 102.908 203.937 103.43Z" fill="black"/>
<path d="M205.616 102.419C205.931 102.941 205.884 103.545 205.511 103.768C205.139 103.991 204.583 103.75 204.27 103.228C203.957 102.706 204.003 102.102 204.375 101.878C204.747 101.655 205.303 101.897 205.616 102.419Z" fill="black"/>
<path d="M209.067 103.686C210.274 105.691 209.718 108.238 207.826 109.376C205.935 110.514 203.423 109.81 202.217 107.805C201.01 105.8 202.065 104.081 203.957 102.943C205.848 101.805 207.862 101.681 209.067 103.686Z" fill="black"/>
<path d="M208.965 103.313L201.921 107.55C201.36 109.761 201.769 112.468 203.237 114.91C205.739 119.068 210.367 120.875 213.574 118.946C216.781 117.018 217.352 112.083 214.851 107.926C213.382 105.485 211.181 103.855 208.964 103.313H208.965Z" fill="black"/>
<path d="M214.244 106.838L202.578 113.854C202.742 114.292 202.922 114.739 203.123 115.196C208.713 127.884 221.143 133.011 221.143 133.011L222.389 132.262C222.389 132.262 223.355 119.054 215.136 107.971C214.84 107.573 214.543 107.196 214.244 106.839V106.838Z" fill="#FF7DCE"/>
<path d="M208.517 110.273L208.18 110.476L221.577 132.741L221.914 132.538L208.517 110.273Z" fill="black"/>
<path d="M214.196 106.753L202.531 113.771L202.625 113.926L214.29 106.908L214.196 106.753Z" fill="white"/>
<path d="M208.918 103.24L201.875 107.477L201.969 107.633L209.012 103.395L208.918 103.24Z" fill="white"/>
<path d="M49.5934 372.655L57.6525 365.4L63.5562 376.361L54.8217 385.044L48.75 381.419L49.5934 372.655Z" fill="white"/>
<path d="M54.8679 385.41L63.9166 376.414L57.7352 364.936L49.3173 372.516L48.4453 381.576L54.869 385.411L54.8679 385.41ZM63.1989 376.308L54.7787 384.68L49.059 381.265L49.8738 372.797L57.574 365.864L63.1989 376.309V376.308Z" fill="black"/>
<path d="M56.0912 405.65L53.4342 406.912L38.5938 376.369L41.5685 374.942L56.0912 405.65Z" fill="black"/>
<path d="M55.203 406.117C55.203 406.117 61.573 403.576 59.5285 395.966C57.484 388.355 58.2886 382.217 58.2886 382.217C58.2886 382.217 53.0797 382.084 50.7175 377.929C48.0365 373.214 51.9849 374.666 50.1918 371.516L41.0391 375.129L55.2041 406.116L55.203 406.117Z" fill="black"/>
<path d="M55.203 406.117L50.8672 396.824L58.7548 392.828C58.9731 393.804 59.2291 394.852 59.5285 395.967C61.573 403.577 55.203 406.118 55.203 406.118V406.117Z" fill="#1E7ADE"/>
<path d="M58.1382 385.359C58.1565 385.282 58.16 385.202 58.1462 385.12C58.0914 384.788 57.7771 384.565 57.4457 384.62L53.047 385.355C52.7156 385.41 52.4916 385.724 52.5476 386.055C52.6025 386.387 52.9168 386.611 53.2482 386.555L57.6468 385.82C57.896 385.779 58.0845 385.59 58.1394 385.359H58.1382Z" fill="#1E7ADE"/>
<path d="M58.5211 387.671C58.5393 387.594 58.5428 387.514 58.5291 387.432C58.4742 387.101 58.1599 386.877 57.8285 386.933L53.4299 387.668C53.0984 387.722 52.8745 388.037 52.9305 388.368C52.9853 388.699 53.2996 388.923 53.631 388.867L58.0297 388.131C58.2788 388.09 58.4674 387.902 58.5222 387.67L58.5211 387.671Z" fill="#1E7ADE"/>
<path d="M58.9117 390.01C58.93 389.933 58.9334 389.853 58.9197 389.771C58.8648 389.44 58.5506 389.216 58.2191 389.272L53.8205 390.007C53.4891 390.062 53.2651 390.376 53.3211 390.708C53.3759 391.039 53.6902 391.263 54.0216 391.207L58.4203 390.471C58.6694 390.43 58.858 390.242 58.9128 390.01H58.9117Z" fill="#1E7ADE"/>
<path d="M100.194 316.683C72.6767 341.648 54.905 366.83 54.905 366.83C54.5804 372.295 59.7882 382.574 67.7284 387.845C67.7284 387.845 95.0791 355.708 116.125 334.67C118.186 331.464 106.941 321.485 100.194 316.682V316.683Z" fill="#191919"/>
<path d="M128.537 402.807L137.156 396.65L132.806 386.748L119.102 390.029L122.331 399.503L128.537 402.807ZM136.433 396.451L128.492 402.125L122.807 399.098L119.857 390.447L132.468 387.428L136.432 396.452L136.433 396.451Z" fill="black"/>
<path d="M154.973 403.146L154.964 406.088L121 406.251V402.952L154.973 403.146Z" fill="black"/>
<path d="M155.008 404.153C155.008 404.153 155.472 397.313 147.725 395.863C139.977 394.413 134.79 391.032 134.79 391.032C134.79 391.032 132.418 395.67 127.648 396.001C122.237 396.377 124.233 393.446 120.617 393.701L120.935 403.514L155.008 404.153Z" fill="black"/>
<path d="M155.007 404.153L144.751 404.04L144.438 395.08C145.412 395.305 146.589 395.65 147.724 395.863C155.471 397.313 155.007 404.153 155.007 404.153Z" fill="#1E7ADE"/>
<path d="M137.558 392.524C137.497 392.475 137.425 392.438 137.345 392.415C137.023 392.321 136.685 392.507 136.592 392.829L135.352 397.113C135.259 397.435 135.445 397.773 135.767 397.866C136.089 397.959 136.428 397.773 136.52 397.451L137.76 393.168C137.831 392.924 137.743 392.674 137.557 392.524H137.558Z" fill="#1E7ADE"/>
<path d="M139.808 393.176C139.747 393.126 139.675 393.089 139.595 393.066C139.273 392.972 138.935 393.158 138.842 393.481L137.602 397.764C137.509 398.086 137.695 398.424 138.017 398.517C138.339 398.611 138.678 398.424 138.77 398.102L140.01 393.819C140.081 393.575 139.993 393.325 139.807 393.176H139.808Z" fill="#1E7ADE"/>
<path d="M142.089 393.836C142.029 393.787 141.957 393.749 141.877 393.726C141.554 393.633 141.216 393.819 141.124 394.141L139.884 398.424C139.79 398.747 139.976 399.085 140.298 399.177C140.621 399.271 140.959 399.085 141.052 398.763L142.292 394.479C142.362 394.236 142.274 393.986 142.088 393.836H142.089Z" fill="#1E7ADE"/>
<path d="M110.831 394.672C110.831 394.672 104.412 373.168 95.5862 347.833C89.4585 330.241 62.1718 338.88 40.5145 337.137C21.2445 335.585 21.2422 307.127 21.2422 307.127C21.2422 307.127 106.765 305.639 114.336 324.491C119.038 336.196 133.727 387.719 133.727 387.719C133.727 392.009 120.359 392.009 110.831 394.672Z" fill="#191919"/>
<path d="M98.0228 354.226C105.596 346.708 114.62 335.873 114.595 326.936C114.584 323.159 112.917 321.48 112.846 321.41L112.303 321.963L112.575 321.686L112.302 321.962C112.302 321.962 112.687 322.352 113.063 323.16C113.411 323.909 113.823 325.181 113.82 326.997C113.811 331.778 110.967 340.288 97.4766 353.677L98.0228 354.226Z" fill="white"/>
<path d="M60.4267 376.597C61.1078 375.959 61.8243 375.285 62.5534 374.594L62.1534 374.172C61.4243 374.863 60.7101 375.536 60.029 376.173L60.4267 376.598V376.597ZM64.6665 372.577C65.3613 371.911 66.0676 371.229 66.767 370.55L66.3624 370.133C65.6641 370.811 64.9579 371.492 64.2642 372.158L64.6665 372.577ZM68.8549 368.512C69.5565 367.823 70.2548 367.134 70.9302 366.463L70.5199 366.05C69.8445 366.721 69.1474 367.41 68.4469 368.097L68.8537 368.512H68.8549ZM72.9918 364.401C73.6821 363.707 74.3712 363.01 75.0409 362.327L74.626 361.92C73.9575 362.602 73.2695 363.299 72.5804 363.992L72.993 364.403L72.9918 364.401ZM77.0751 360.238C77.7573 359.532 78.4373 358.824 79.0932 358.134L78.6715 357.733C78.0156 358.422 77.3379 359.128 76.6556 359.834L77.0739 360.238H77.0751ZM81.0943 356.014C81.7686 355.294 82.436 354.574 83.0805 353.871L82.6519 353.478C82.0085 354.178 81.3423 354.898 80.6692 355.617L81.0943 356.014ZM85.0381 351.715C85.7009 350.977 86.3523 350.243 86.974 349.533L86.5363 349.15C85.9158 349.858 85.2667 350.591 84.605 351.327L85.0381 351.715ZM88.8802 347.324C89.5271 346.565 90.1567 345.812 90.7521 345.085L90.303 344.716C89.7088 345.439 89.0814 346.19 88.438 346.947L88.8814 347.324H88.8802ZM92.5818 342.81C93.208 342.014 93.8057 341.234 94.3577 340.49L93.8914 340.144C93.3417 340.882 92.7475 341.659 92.1247 342.451L92.5818 342.81ZM96.0628 338.115C96.6502 337.263 97.1896 336.44 97.6673 335.665L97.1724 335.36C96.6993 336.127 96.1645 336.942 95.5839 337.785L96.0628 338.116V338.115ZM99.1175 333.111C99.6192 332.131 100.012 331.219 100.288 330.403L99.7369 330.217C99.4717 331.008 99.0889 331.892 98.6009 332.848L99.1186 333.113L99.1175 333.111ZM100.199 327.49L100.779 327.454C100.769 327.293 100.751 327.135 100.723 326.984C100.587 326.213 100.039 325.524 99.0935 324.937L98.7861 325.43C99.5849 325.927 100.044 326.484 100.151 327.086C100.173 327.215 100.189 327.351 100.199 327.49ZM96.1839 324.34L96.3496 323.783C95.5199 323.536 94.5577 323.31 93.488 323.112L93.3817 323.683C94.4308 323.878 95.3725 324.099 96.1828 324.34H96.1839ZM54.0121 323.289L54.3252 323.265C54.3252 323.265 54.8224 323.228 55.7103 323.169L55.6726 322.589C55.1926 322.621 54.8258 322.646 54.5904 322.662C54.5789 322.232 54.5446 321.815 54.4887 321.42L53.9127 321.502C53.979 321.966 54.0132 322.461 54.0132 322.974V323.287L54.0121 323.289ZM90.5247 323.247L90.5967 322.67C89.6928 322.557 88.7157 322.455 87.6917 322.368L87.6426 322.948C88.6585 323.035 89.6288 323.135 90.5247 323.247ZM58.6119 322.995C59.5696 322.941 60.5467 322.892 61.5158 322.846L61.4883 322.266C60.5181 322.311 59.5398 322.362 58.5799 322.414L58.6119 322.995ZM84.7478 322.743L84.781 322.163C83.8507 322.11 82.8714 322.065 81.8691 322.029L81.8485 322.61C82.8474 322.645 83.8222 322.689 84.7478 322.742V322.743ZM64.4196 322.723C65.3922 322.685 66.3704 322.652 67.3246 322.624L67.3075 322.043C66.351 322.071 65.3716 322.104 64.3968 322.141L64.4196 322.721V322.723ZM70.2296 322.552C71.2147 322.533 72.1918 322.519 73.1347 322.511L73.1301 321.93C72.185 321.938 71.2056 321.953 70.2182 321.972L70.2296 322.554V322.552ZM78.9458 322.533L78.9561 321.951C78.0099 321.934 77.0293 321.924 76.0408 321.921L76.0385 322.502C77.0248 322.506 78.0019 322.516 78.9447 322.533H78.9458ZM53.0316 318.876L53.5333 318.582C53.027 317.716 52.3322 316.98 51.4682 316.395L51.1425 316.876C51.9333 317.412 52.5687 318.085 53.0316 318.876ZM48.5861 315.736L48.7415 315.176C47.8581 314.932 46.8741 314.773 45.8159 314.702L45.777 315.283C46.7953 315.35 47.7404 315.503 48.5861 315.737V315.736ZM40.0733 315.686C40.0847 315.684 41.263 315.421 42.9109 315.301L42.8686 314.722C41.175 314.845 39.9945 315.109 39.9453 315.119L40.0733 315.686Z" fill="white"/>
<path d="M90.7415 296.067L105.153 293.879C105.35 293.855 106.688 291.493 106.806 291.333C106.806 291.333 108.732 290.767 110.976 290.106C113.22 289.446 118.279 291.63 118.279 291.63C118.665 291.733 120.566 291.906 120.464 292.292L118.432 293.878C115.964 294.82 113.002 291.573 107.317 296.519C105.342 298.236 89.6536 296.141 90.7415 296.067Z" fill="#F7F8F9"/>
<path d="M118.285 294.099C117.512 294.327 116.708 294.201 115.79 294.057C113.753 293.738 111.218 293.343 107.428 296.641C106.961 297.047 105.837 297.275 103.991 297.338C102.528 297.389 100.661 297.331 98.4406 297.169C94.7631 296.901 90.8775 296.387 90.617 296.228C90.5507 296.187 90.5187 296.114 90.5358 296.042C90.5552 295.96 90.6204 295.916 90.7278 295.907L105.105 293.725C105.3 293.551 106.071 292.253 106.365 291.757C106.553 291.439 106.646 291.284 106.68 291.238L106.712 291.195L110.934 289.953C113.176 289.293 117.999 291.334 118.335 291.478C118.425 291.501 118.603 291.529 118.808 291.562C119.706 291.705 120.408 291.835 120.585 292.107C120.63 292.178 120.644 292.256 120.624 292.335L120.61 292.388L118.516 294.022L118.493 294.031C118.425 294.057 118.355 294.08 118.287 294.1L118.285 294.099ZM111.544 293.84C111.767 293.775 111.99 293.72 112.213 293.675C113.627 293.393 114.802 293.577 115.84 293.738C116.786 293.887 117.605 294.015 118.356 293.736L120.268 292.244C120.206 292.205 120.067 292.14 119.757 292.064C119.441 291.988 119.063 291.928 118.757 291.879C118.525 291.843 118.343 291.813 118.241 291.787L118.218 291.779C118.168 291.757 113.189 289.625 111.025 290.262L106.911 291.471C106.86 291.554 106.753 291.733 106.641 291.92C105.462 293.905 105.325 294.018 105.179 294.038L91.5872 296.101C92.8831 296.303 95.5562 296.637 98.5515 296.852C105.092 297.322 106.787 296.768 107.214 296.396C108.709 295.094 110.133 294.253 111.544 293.838V293.84Z" fill="#010101"/>
<path d="M105.261 291.53C112.498 298.236 100.179 300.682 100.179 300.682C75.3838 303.9 61.4713 288.034 61.173 270.742C61.0827 265.485 66.5225 256.027 69.0046 258.213C79.0396 267.048 80.299 298.876 105.261 291.531V291.53Z" fill="#1E7ADE"/>
<path d="M21.3232 311.019C20.5644 295.463 22.8557 266.748 44.281 256.525C55.2714 251.281 69.3085 255.697 70.6215 260.022C73.0763 268.104 72.17 283.569 62.3111 282.696C54.3834 290.969 61.1694 307.1 61.1694 307.1C49.9025 316.231 29.18 318.812 21.3232 311.019Z" fill="#1E7ADE"/>
<path d="M62.1697 220.726C63.589 221.363 64.2862 222.948 63.8496 224.399C63.8576 224.403 63.8667 224.406 63.8747 224.409C65.8621 225.302 66.9089 227.427 66.5203 229.476C66.7775 229.542 67.0323 229.628 67.2826 229.74C69.6093 230.786 70.6482 233.519 69.6025 235.844C69.4048 236.285 69.1454 236.68 68.8391 237.023C68.9019 237.777 68.7808 238.557 68.4494 239.296C67.4037 241.623 64.6701 242.661 62.3434 241.616C61.3023 241.148 60.5206 240.343 60.0669 239.388C59.9926 239.359 59.9184 239.327 59.8441 239.294C57.5173 238.249 56.4785 235.516 57.5242 233.19C57.7802 232.621 58.1379 232.128 58.5641 231.725C57.3665 230.406 56.9916 228.454 57.7676 226.726C57.9744 226.265 58.2499 225.855 58.5733 225.501C57.8339 224.628 57.6156 223.375 58.115 222.263C58.8087 220.719 60.6235 220.029 62.1674 220.723L62.1697 220.726Z" fill="black"/>
<path d="M68.7389 244.09C67.8315 246.109 65.7219 247.136 64.0363 246.38C63.9117 246.324 63.7928 246.26 63.6808 246.188C62.266 245.29 61.7849 243.215 62.6249 241.345C63.5323 239.326 65.6419 238.299 67.3275 239.055C68.1378 239.42 68.7332 240.14 69.0017 241.083C69.2737 242.038 69.1812 243.107 68.7389 244.09Z" fill="#1E7ADE"/>
<path d="M68.9209 251.129C71.5593 250.006 72.7881 246.958 71.6654 244.321C70.5428 241.683 67.4938 240.454 64.8554 241.577C62.217 242.699 60.9882 245.747 62.1109 248.385C63.2335 251.023 66.2825 252.251 68.9209 251.129Z" fill="black"/>
<path d="M60.0342 254.749L63.05 248.57L66.8281 253.524L65.3505 256.621C65.3505 256.621 67.8715 267.133 65.1574 267.072C62.4432 267.01 59.5645 256.778 60.0353 254.749H60.0342Z" fill="white"/>
<path d="M64.8828 267.2C64.4016 267.088 63.9057 266.706 63.4028 266.059C62.4451 264.825 61.4566 262.613 60.6932 259.99C60.0133 257.653 59.683 255.534 59.8738 254.713L59.8784 254.695L59.8864 254.679L63.0177 248.265L67.0141 253.506L65.5182 256.641C65.5993 256.988 66.037 258.902 66.3204 260.976C66.7444 264.074 66.6381 266.044 66.0038 266.83C65.781 267.106 65.4942 267.242 65.1502 267.234C65.0622 267.232 64.973 267.221 64.8839 267.2H64.8828ZM60.1835 254.804C60.0167 255.576 60.3515 257.665 61.0029 259.899C61.756 262.485 62.724 264.658 63.6577 265.861C64.1914 266.548 64.6953 266.901 65.1559 266.911C65.397 266.917 65.5913 266.823 65.7501 266.626C66.3181 265.923 66.4038 263.985 65.9981 261.021C65.6884 258.754 65.1936 256.681 65.1879 256.66L65.1742 256.604L66.6347 253.545L63.0748 248.877L60.1824 254.804H60.1835Z" fill="black"/>
<path d="M69.0596 244.747C67.5328 244.071 65.8792 244.241 64.5375 245.678C63.9387 245.481 63.1856 245.957 62.8176 246.786C62.5033 247.495 62.5696 248.241 62.9399 248.636C62.3468 250.985 63.1833 253.781 64.9775 254.576C67.0528 255.496 69.6013 253.539 70.8389 250.862C72.7189 246.797 71.1361 245.666 69.0596 244.746V244.747Z" fill="white"/>
<path d="M65.4139 254.894C65.2414 254.854 65.0734 254.798 64.91 254.725C64.0151 254.328 63.3043 253.446 62.9078 252.24C62.5398 251.122 62.4872 249.83 62.7615 248.679C62.3889 248.213 62.3489 247.44 62.6689 246.72C63.0529 245.856 63.8174 245.348 64.486 245.497C65.1385 244.822 65.8825 244.407 66.6996 244.261C67.4847 244.12 68.3007 244.234 69.1235 244.599C70.1246 245.042 71.2285 245.61 71.6525 246.735C72.0365 247.754 71.8171 249.127 70.984 250.929C70.3566 252.287 69.3818 253.478 68.3109 254.202C67.327 254.865 66.3179 255.102 65.4139 254.893V254.894ZM64.4231 245.814C63.91 245.696 63.2803 246.137 62.9638 246.852C62.6849 247.481 62.7226 248.17 63.0563 248.527L63.1169 248.591L63.0952 248.676C62.8141 249.79 62.8575 251.052 63.2152 252.139C63.5832 253.258 64.2311 254.07 65.0414 254.43C65.9579 254.837 67.055 254.661 68.1304 253.935C69.1543 253.245 70.0869 252.1 70.6903 250.796C71.4857 249.075 71.7017 247.785 71.3497 246.851C71.008 245.943 70.16 245.412 68.9921 244.895C67.3933 244.186 65.8528 244.504 64.654 245.788L64.5831 245.864L64.4848 245.832C64.4643 245.825 64.4437 245.819 64.422 245.814H64.4231Z" fill="black"/>
<path d="M69.2846 246.205C68.6972 247.512 67.1613 248.096 65.8528 247.509C64.5454 246.921 63.9615 245.386 64.5489 244.078C65.1363 242.771 66.6722 242.187 67.9807 242.774C69.2881 243.361 69.872 244.897 69.2846 246.205Z" fill="black"/>
<path d="M68.0067 249.87C67.9633 250.126 68.1358 250.37 68.393 250.412C68.6489 250.455 68.8924 250.283 68.9346 250.026C68.9781 249.77 68.8055 249.526 68.5484 249.484C68.2924 249.441 68.049 249.613 68.0067 249.87Z" fill="black"/>
<path d="M66.2734 252.03C66.6014 253.104 67.318 253.521 68.1179 253.563Z" fill="white"/>
<path d="M67.6811 253.665C67.0811 253.525 66.4343 253.117 66.1166 252.076C66.0903 251.991 66.1383 251.901 66.224 251.875C66.3097 251.849 66.4 251.897 66.4251 251.983C66.6983 252.88 67.2697 253.356 68.1233 253.402C68.2125 253.406 68.281 253.483 68.2765 253.572C68.2719 253.661 68.1953 253.73 68.1062 253.725C67.9702 253.718 67.8273 253.7 67.6799 253.666L67.6811 253.665Z" fill="black"/>
<path d="M68.5703 248.55C68.5703 248.55 69.5611 249.021 69.7885 249.771Z" fill="white"/>
<path d="M69.7495 249.929C69.6947 249.916 69.6489 249.875 69.6318 249.818C69.4284 249.147 68.5073 248.7 68.4981 248.696C68.4181 248.657 68.3839 248.561 68.4216 248.481C68.4604 248.401 68.5564 248.367 68.6364 248.404C68.6799 248.425 69.6947 248.916 69.9404 249.724C69.9666 249.81 69.9186 249.9 69.8329 249.925C69.8044 249.933 69.7758 249.934 69.7495 249.927V249.929Z" fill="black"/>
<path d="M70.055 250.315C70.055 250.315 69.1351 252.605 68.8231 252.621C68.5111 252.637 68.1797 252.472 68.1797 252.472" fill="white"/>
<path d="M68.4789 252.746C68.2732 252.698 68.1155 252.621 68.1053 252.616C68.0253 252.576 67.9933 252.48 68.0321 252.4C68.0721 252.32 68.1681 252.288 68.2481 252.327C68.2504 252.328 68.5338 252.466 68.7932 252.46C68.9441 252.354 69.4035 251.496 69.9017 250.254C69.9349 250.172 70.0286 250.131 70.112 250.165C70.1943 250.198 70.2354 250.292 70.2012 250.375C70.1989 250.381 69.9669 250.959 69.6983 251.532C69.1635 252.673 68.9749 252.776 68.8275 252.784C68.7064 252.789 68.5852 252.772 68.4767 252.747L68.4789 252.746Z" fill="black"/>
<path d="M68.473 251.431C69.3884 251.431 70.1335 250.686 70.1335 249.771C70.1335 248.856 69.3884 248.111 68.473 248.111C67.5576 248.111 66.8125 248.856 66.8125 249.771C66.8125 250.686 67.5576 251.431 68.473 251.431ZM68.473 248.433C69.2101 248.433 69.8101 249.033 69.8101 249.77C69.8101 250.507 69.2101 251.108 68.473 251.108C67.7359 251.108 67.1348 250.508 67.1348 249.77C67.1348 249.032 67.7347 248.433 68.473 248.433Z" fill="black"/>
<path d="M71.2972 252.647C72.0937 252.647 72.7429 251.999 72.7429 251.201C72.7429 250.404 72.0949 249.756 71.2972 249.756C70.4995 249.756 69.8516 250.404 69.8516 251.201C69.8516 251.999 70.4995 252.647 71.2972 252.647ZM71.2972 250.081C71.9155 250.081 72.4194 250.583 72.4194 251.202C72.4194 251.822 71.9166 252.324 71.2972 252.324C70.6778 252.324 70.175 251.822 70.175 251.202C70.175 250.583 70.6778 250.081 71.2972 250.081Z" fill="black"/>
<path d="M65.0897 246.52L64.8594 246.747L67.0753 248.994L67.3056 248.768L65.0897 246.52Z" fill="black"/>
<path d="M69.9697 249.808L69.7188 250.012L70.0842 250.461L70.3351 250.257L69.9697 249.808Z" fill="black"/>
<path d="M32.5312 311.983C32.5312 311.465 32.5358 310.92 32.5472 310.363L32.8707 310.37C32.8592 310.925 32.8535 311.468 32.8547 311.983H32.5312ZM32.5952 308.744C32.6158 308.208 32.6421 307.663 32.6718 307.127L32.9941 307.146C32.9644 307.68 32.9381 308.222 32.9175 308.757L32.5952 308.744ZM32.777 305.512C32.817 304.974 32.8615 304.431 32.9107 303.899L33.2318 303.928C33.1826 304.458 33.1381 304.999 33.0981 305.536L32.7758 305.512H32.777ZM33.0752 302.289C33.1358 301.749 33.2009 301.209 33.2706 300.681L33.5906 300.724C33.5209 301.248 33.4558 301.787 33.3964 302.324L33.0752 302.289ZM33.5004 299.079C33.5838 298.541 33.6729 298.004 33.7655 297.482L34.0832 297.539C33.9906 298.059 33.9015 298.594 33.8192 299.13L33.5004 299.081V299.079ZM34.0706 295.892C34.17 295.405 34.2763 294.921 34.3849 294.451L34.418 294.308L34.7323 294.383L34.6992 294.524C34.5906 294.99 34.4854 295.473 34.386 295.957L34.0695 295.892H34.0706ZM35.1243 292.822L34.8123 292.739C34.9197 292.337 35.0328 291.939 35.1471 291.553C35.1837 291.429 35.2214 291.306 35.2591 291.181L35.5677 291.276C35.53 291.399 35.4934 291.522 35.4568 291.644C35.3426 292.028 35.2306 292.424 35.1243 292.822ZM36.0637 289.743L35.7574 289.639C35.9265 289.141 36.1094 288.628 36.3002 288.112L36.6031 288.224C36.4134 288.737 36.2317 289.248 36.0637 289.743ZM37.1813 286.719L36.8808 286.6C37.075 286.11 37.2819 285.606 37.4945 285.102L37.7916 285.228C37.5802 285.729 37.3745 286.231 37.1802 286.719H37.1813ZM38.4338 283.747L38.139 283.616C38.3538 283.132 38.579 282.636 38.8098 282.142L39.1024 282.278C38.8727 282.77 38.6487 283.265 38.4338 283.746V283.747ZM39.7949 280.821L39.5046 280.68C39.7366 280.203 39.9778 279.714 40.2223 279.229L40.5103 279.375C40.2669 279.858 40.0258 280.345 39.7949 280.821ZM41.2463 277.937L40.9594 277.788C41.2063 277.313 41.4611 276.832 41.7171 276.357L42.0017 276.51C41.7468 276.983 41.492 277.463 41.2463 277.936V277.937ZM42.7776 275.095L42.4954 274.938C42.7582 274.465 43.0256 273.991 43.2919 273.528L43.5719 273.689C43.3079 274.15 43.0405 274.623 42.7776 275.095ZM44.3856 272.294L44.1079 272.13C44.6278 271.254 44.9478 270.745 44.9513 270.741L45.2244 270.913C45.2244 270.913 44.9033 271.423 44.3856 272.294Z" fill="black"/>
<path d="M59.734 301.61C59.7191 301.58 58.2815 298.646 57.8689 294.859C57.6266 292.63 57.7809 290.545 58.3283 288.66C59.0129 286.299 60.318 284.252 62.2059 282.574L62.2767 282.511L62.3659 282.542C62.3841 282.548 64.2869 283.187 66.3714 282.069C68.4719 280.942 70.0215 278.491 70.9758 274.787L71.2889 274.867C70.3106 278.667 68.705 281.187 66.5177 282.356C64.5486 283.409 62.7761 282.997 62.3521 282.875C60.5477 284.5 59.2997 286.473 58.6392 288.743C58.1032 290.586 57.9524 292.628 58.1889 294.813C58.5923 298.546 60.0083 301.436 60.0231 301.465L59.734 301.609V301.61Z" fill="black"/>
<path d="M116.624 296.565L84.1484 296.666L84.1987 294.531L115.706 294.522L116.624 296.565Z" fill="#F7F8F9"/>
<path d="M116.874 296.726L83.9844 296.829L84.0427 294.37L115.811 294.361L116.874 296.726ZM84.3146 296.504L116.375 296.405L115.601 294.684L84.3558 294.693L84.3135 296.505L84.3146 296.504Z" fill="#010101"/>
<path d="M126.43 261.519L116.678 296.636L115.711 294.522L124.424 261.554L126.43 261.519Z" fill="#F7F8F9"/>
<path d="M116.714 297.105L115.539 294.537L115.554 294.481L124.298 261.394L126.643 261.354L116.714 297.105ZM115.881 294.507L116.64 296.166L126.216 261.684L124.548 261.712L115.881 294.508V294.507Z" fill="#010101"/>
<path d="M139.285 262.446L129.788 295.678L116.625 296.565L125.916 261.538L139.285 262.446Z" fill="#F7F8F9"/>
<path d="M129.705 296.565L116.414 296.741L116.471 296.524L125.795 261.366L139.496 262.297L139.442 262.489L129.704 296.565H129.705ZM116.841 296.389L129.483 296.166L139.077 262.593L126.04 261.707L116.841 296.389Z" fill="#010101"/>
<path d="M130.006 278.848C129.789 280.235 128.959 281.256 128.152 281.131C127.345 281.005 126.866 279.778 127.084 278.391C127.301 277.004 128.13 275.982 128.937 276.108C129.744 276.234 130.223 277.461 130.006 278.848Z" fill="#F7F8F9"/>
<path d="M128.366 281.3C128.286 281.305 128.206 281.302 128.126 281.289C127.677 281.22 127.305 280.864 127.081 280.292C126.869 279.748 126.813 279.065 126.921 278.366C127.155 276.868 128.051 275.806 128.959 275.948C129.867 276.09 130.396 277.374 130.162 278.872C130.054 279.57 129.791 280.204 129.423 280.658C129.104 281.051 128.735 281.272 128.363 281.3H128.366ZM128.749 276.261C128.091 276.309 127.425 277.238 127.241 278.416C127.141 279.059 127.191 279.684 127.383 280.174C127.563 280.636 127.845 280.918 128.176 280.971C128.507 281.022 128.862 280.839 129.174 280.454C129.506 280.045 129.744 279.465 129.844 278.823C130.043 277.548 129.616 276.378 128.91 276.268C128.856 276.26 128.802 276.258 128.747 276.261H128.749Z" fill="#010101"/>
<path d="M28.5938 340.382H74.2237V335.128H28.5938V340.382ZM73.5448 339.704H29.2714V335.806H73.5448V339.704Z" fill="black"/>
<path d="M73.3294 339.938L71.9922 340.166L83.2837 406.416L84.6209 406.188L73.3294 339.938Z" fill="black"/>
<path d="M28.8393 339.895L14.7188 406.712L16.0459 406.992L30.1665 340.176L28.8393 339.895Z" fill="black"/>
<path d="M29.3873 340.711L29.6205 339.375C29.5873 339.369 26.3189 338.783 23.1099 337.049C18.9295 334.789 16.8096 331.735 16.8096 327.971V285.91H15.4531V327.971C15.4531 332.22 17.8884 335.777 22.4962 338.257C25.8972 340.089 29.2468 340.686 29.3873 340.71V340.711Z" fill="black"/>
<path d="M81.4817 391.332H18.5234V392.688H81.4817V391.332Z" fill="black"/>
<path d="M155.472 296.713H69.5547V301.545H155.472V296.713Z" fill="white"/>
<path d="M69.2188 301.883H155.815V296.374H69.2188V301.883ZM155.136 301.205H69.8976V297.051H155.136V301.205Z" fill="black"/>
<path d="M77.4799 301.61V406.293H75.3828V301.61" fill="white"/>
<path d="M75.0469 406.632H77.8228V301.61H77.1451V405.953H75.7257V301.61H75.0469V406.632Z" fill="black"/>
<path d="M150.793 301.61V406.293H149.008V301.61" fill="white"/>
<path d="M148.672 406.632H151.135V301.61H150.456V405.953H149.35V301.61H148.672V406.632Z" fill="black"/>
<path d="M67.8842 294.93C67.8842 294.93 86.6822 294.898 87.7541 294.827C88.8261 294.756 92.1448 291.125 92.1448 291.125C92.9939 290.158 94.3904 289.889 95.5378 290.473L102.472 293.183C103.069 293.416 103.364 294.088 103.132 294.684L102.197 297.085C101.973 297.659 101.287 297.896 100.756 297.58L99.597 296.892L95.8772 297.114C94.7744 297.389 93.4076 300.255 90.1438 300.47C86.8788 300.685 57.8264 301.427 57.8264 301.427C56.6321 301.465 66.5231 294.868 67.8842 294.929V294.93Z" fill="#F7F8F9"/>
<path d="M90.152 300.632C86.9213 300.845 58.118 301.583 57.8277 301.59C57.6871 301.594 57.622 301.532 57.5912 301.48C57.5454 301.402 57.5546 301.31 57.6174 301.206C57.9489 300.657 60.3705 298.95 62.4812 297.598C63.5292 296.926 67.0124 294.736 67.8844 294.769C68.2295 294.769 86.6904 294.736 87.7406 294.666C88.5669 294.611 91.1119 292.013 92.0227 291.016C92.9176 289.995 94.3883 289.711 95.6009 290.324L102.529 293.031C103.206 293.296 103.543 294.063 103.279 294.741L102.345 297.142C102.221 297.46 101.964 297.706 101.642 297.817C101.318 297.928 100.965 297.892 100.671 297.718L99.555 297.055L95.9003 297.274C95.5677 297.365 95.1643 297.756 94.6992 298.21C93.7118 299.17 92.3599 300.485 90.152 300.631V300.632ZM57.9786 301.263C60.3133 301.203 87.0321 300.513 90.1302 300.31C92.2193 300.173 93.5221 298.906 94.4729 297.98C94.9997 297.467 95.4157 297.063 95.8351 296.959L95.85 296.956H95.8648L99.6338 296.728L100.835 297.442C101.046 297.568 101.302 297.594 101.535 297.514C101.769 297.434 101.954 297.256 102.043 297.026L102.978 294.626C103.178 294.114 102.923 293.534 102.411 293.334L95.4683 290.621L95.4614 290.618C94.3792 290.066 93.0638 290.32 92.2627 291.233C91.9165 291.612 88.8652 294.917 87.7612 294.989C86.6961 295.059 68.6489 295.091 67.881 295.092H67.873C67.3656 295.07 65.2137 296.221 62.5178 297.957C61.3338 298.721 60.207 299.493 59.3454 300.132C58.4734 300.778 58.1203 301.106 57.9774 301.264L57.9786 301.263Z" fill="#010101"/>
<path d="M97.3017 292.795L97.1953 293.1L103.051 295.139L103.158 294.834L97.3017 292.795Z" fill="#010101"/>
<path d="M96.9219 295.397L100.253 295.179L102.434 296.457" fill="#F7F8F9"/>
<path d="M102.356 296.597L100.218 295.343L96.9358 295.558L96.9141 295.236L100.296 295.014L102.52 296.318L102.356 296.597Z" fill="#010101"/>
<path d="M87.287 294.841C92.8798 302.967 88.0264 306.089 88.0264 306.089C76.1972 311.736 61.5213 312.084 53.9925 308.327C39.1006 300.897 31.0667 265.336 48.3013 257.021C56.5409 253.045 51.2132 278.535 63.3749 291.24C67.817 295.879 77.0383 295.481 87.287 294.842V294.841Z" fill="#1E7ADE"/>
<path d="M83.2344 295.338C78.9123 295.622 75.5764 295.573 72.7206 295.198C68.0785 294.589 64.7346 293.081 62.4959 290.587C60.672 288.555 59.1577 285.949 57.9966 282.84C57.0698 280.358 56.3636 277.553 55.8985 274.502C55.1076 269.309 55.2916 265.143 55.2928 265.102L55.615 265.117C55.6128 265.158 55.4311 269.298 56.2184 274.459C56.6801 277.488 57.3807 280.27 58.2995 282.73C59.4457 285.799 60.9382 288.37 62.7347 290.371C64.9186 292.805 68.1985 294.28 72.7606 294.878C76.429 295.359 80.903 295.299 87.2707 294.681L87.3016 295.002C85.8525 295.142 84.4994 295.254 83.2321 295.338H83.2344Z" fill="#010101"/>
<path d="M57.2752 309.874C52.5085 307.907 48.4858 304.57 45.3191 299.957C42.7901 296.272 40.7982 291.771 39.4005 286.576C38.1572 281.958 37.6235 277.636 37.3938 274.823C37.1446 271.773 37.1904 269.788 37.1915 269.768L37.5149 269.776C37.5126 269.855 37.3469 277.706 39.7148 286.499C41.1033 291.657 43.0804 296.125 45.5888 299.778C48.719 304.336 52.6925 307.632 57.3997 309.575L57.2763 309.873L57.2752 309.874Z" fill="#010101"/>
<path d="M478 405.664H0V406.807H478V405.664Z" fill="black"/>
</g>
<path d="M341.438 26.0821L338.133 21.4845L340.55 13.0981L339.264 7.1601L339.799 7.52901L341.016 13.4197L338.921 20.5183L342.638 24.5973L341.438 26.0821Z" fill="black"/>
<path d="M351.734 33.1951L356.819 34.395L362.135 28.012L367.304 26.5337L366.769 26.1648L361.669 27.689L357.192 33.1412L352.314 31.2822L351.734 33.1951Z" fill="black"/>
<path d="M340.085 27.991L335.198 26.4155L330.739 31.1615L326 31.8179L326.535 32.1881L331.204 31.4844L334.954 27.4225L339.703 29.5283L340.085 27.991Z" fill="black"/>
<path d="M350.378 35.1039L353.88 39.326L352.319 46.0753L354.035 51.1928L353.501 50.8226L351.854 45.7537L353.221 40.0468L349.375 36.212L350.378 35.1039Z" fill="black"/>
<path d="M344.788 19.6859L341.484 15.0883L343.901 6.70192L342.616 0.763936L343.151 1.13284L344.368 7.02356L342.273 14.1221L345.989 18.2011L344.788 19.6859Z" fill="black"/>
<path d="M355.086 26.8002L360.169 27.9988L365.487 21.6158L370.656 20.1375L370.121 19.7686L365.02 21.2928L360.544 26.7451L355.665 24.8861L355.086 26.8002Z" fill="black"/>
<path d="M337.743 43.7962C337.731 43.8146 336.417 45.6119 334.348 45.071C333.028 44.7271 332.017 44.8373 331.342 45.3992C330.669 45.9611 330.597 46.762 330.594 46.7961L330.863 46.825C330.863 46.8184 330.931 46.1226 331.506 45.646C332.114 45.1432 333.051 45.0513 334.287 45.3743C336.525 45.9572 337.939 44.0129 337.952 43.9932L337.742 43.7962H337.743Z" fill="black"/>
<path d="M339.286 44.9121C339.277 44.9358 338.444 47.2805 339.942 49.2787C340.771 50.3828 341.139 51.3766 341.037 52.2299C340.941 53.0373 340.437 53.4299 340.431 53.4338L340.58 53.6937C340.605 53.6754 341.188 53.2264 341.303 52.2798C341.42 51.3319 341.03 50.2541 340.147 49.0765C338.757 47.2227 339.527 45.0552 339.535 45.0342L339.286 44.9135V44.9121Z" fill="black"/>
<path d="M338.734 43.959C339.048 43.3591 339.001 42.6646 338.629 42.4086C338.256 42.1526 337.701 42.4296 337.388 43.0295C337.074 43.6295 337.12 44.3227 337.493 44.58C337.864 44.8373 338.421 44.559 338.734 43.959Z" fill="black"/>
<path d="M340.413 45.1209C340.728 44.5209 340.681 43.8264 340.308 43.5704C339.936 43.3144 339.38 43.5914 339.067 44.1914C338.754 44.7914 338.8 45.4846 339.172 45.7419C339.544 45.9992 340.1 45.7209 340.413 45.1209Z" fill="black"/>
<path d="M343.864 43.665C345.071 41.3609 344.514 38.4346 342.623 37.127C340.732 35.8194 338.22 36.6281 337.014 38.9322C335.807 41.2362 336.862 43.2107 338.754 44.5183C340.645 45.8259 342.658 45.969 343.864 43.665Z" fill="black"/>
<path d="M343.762 44.0929L336.718 39.2249C336.157 36.6846 336.566 33.5732 338.034 30.7676C340.536 25.9902 345.164 23.9133 348.371 26.1293C351.578 28.3454 352.149 34.0156 349.648 38.793C348.179 41.5972 345.978 43.4707 343.761 44.0929H343.762Z" fill="black"/>
<path d="M349.041 40.0428L337.375 31.9807C337.538 31.4779 337.719 30.9645 337.92 30.4394C343.51 15.859 355.94 9.96827 355.94 9.96827L357.186 10.8282C357.186 10.8282 358.152 26.0059 349.933 38.7405C349.637 39.1987 349.34 39.6319 349.041 40.0415V40.0428Z" fill="#FF7DCE"/>
<path d="M343.313 36.0955L342.977 35.8627L356.374 10.2786L356.711 10.5114L343.313 36.0955Z" fill="black"/>
<path d="M348.993 40.1411L337.328 32.0766L337.422 31.8978L349.087 39.9623L348.993 40.1411Z" fill="white"/>
<path d="M343.715 44.1777L336.672 39.3084L336.766 39.1295L343.809 43.9988L343.715 44.1777Z" fill="white"/>
<path d="M487.438 139.837L484.133 144.434L486.55 152.821L485.264 158.759L485.799 158.39L487.016 152.499L484.921 145.401L488.638 141.322L487.438 139.837Z" fill="black"/>
<path d="M497.734 132.724L502.819 131.524L508.135 137.907L513.304 139.385L512.769 139.754L507.669 138.23L503.192 132.778L498.314 134.637L497.734 132.724Z" fill="black"/>
<path d="M486.085 137.928L481.198 139.503L476.739 134.757L472 134.101L472.535 133.731L477.204 134.434L480.954 138.496L485.703 136.39L486.085 137.928Z" fill="black"/>
<path d="M496.378 130.815L499.88 126.593L498.319 119.843L500.035 114.726L499.501 115.096L497.854 120.165L499.221 125.872L495.375 129.707L496.378 130.815Z" fill="black"/>
<path d="M490.788 146.233L487.484 150.83L489.901 159.217L488.616 165.155L489.151 164.786L490.368 158.895L488.273 151.797L491.989 147.718L490.788 146.233Z" fill="black"/>
<path d="M501.086 139.119L506.169 137.92L511.487 144.303L516.656 145.781L516.121 146.15L511.02 144.626L506.544 139.174L501.665 141.033L501.086 139.119Z" fill="black"/>
<path d="M483.743 122.123C483.731 122.104 482.417 120.307 480.348 120.848C479.028 121.192 478.017 121.081 477.342 120.52C476.669 119.958 476.597 119.157 476.594 119.123L476.863 119.094C476.863 119.1 476.931 119.796 477.506 120.273C478.114 120.776 479.051 120.867 480.287 120.544C482.525 119.962 483.939 121.906 483.952 121.926L483.742 122.123H483.743Z" fill="black"/>
<path d="M485.286 121.007C485.277 120.983 484.444 118.638 485.942 116.64C486.771 115.536 487.139 114.542 487.037 113.689C486.941 112.881 486.437 112.489 486.431 112.485L486.58 112.225C486.605 112.243 487.188 112.692 487.303 113.639C487.42 114.587 487.03 115.665 486.147 116.842C484.757 118.696 485.527 120.863 485.535 120.884L485.286 121.005V121.007Z" fill="black"/>
<path d="M484.734 121.96C485.048 122.56 485.001 123.254 484.629 123.51C484.256 123.766 483.701 123.489 483.388 122.889C483.074 122.289 483.12 121.596 483.493 121.339C483.864 121.081 484.421 121.36 484.734 121.96Z" fill="black"/>
<path d="M486.413 120.798C486.728 121.398 486.681 122.092 486.308 122.348C485.936 122.604 485.38 122.327 485.067 121.727C484.754 121.127 484.8 120.434 485.172 120.177C485.544 119.92 486.1 120.198 486.413 120.798Z" fill="black"/>
<path d="M489.864 122.254C491.071 124.558 490.514 127.484 488.623 128.792C486.732 130.099 484.22 129.291 483.014 126.987C481.807 124.683 482.862 122.708 484.754 121.4C486.645 120.093 488.658 119.95 489.864 122.254Z" fill="black"/>
<path d="M489.762 121.826L482.718 126.694C482.157 129.234 482.566 132.346 484.034 135.151C486.536 139.929 491.164 142.005 494.371 139.789C497.578 137.573 498.149 131.903 495.648 127.126C494.179 124.322 491.978 122.448 489.761 121.826H489.762Z" fill="black"/>
<path d="M495.041 125.876L483.375 133.938C483.538 134.441 483.719 134.954 483.92 135.479C489.51 150.06 501.94 155.95 501.94 155.95L503.186 155.091C503.186 155.091 504.152 139.913 495.933 127.178C495.637 126.72 495.34 126.287 495.041 125.877V125.876Z" fill="#FF7DCE"/>
<path d="M489.313 129.823L488.977 130.056L502.374 155.64L502.711 155.407L489.313 129.823Z" fill="black"/>
<path d="M494.993 125.778L483.328 133.842L483.422 134.021L495.087 125.957L494.993 125.778Z" fill="white"/>
<path d="M489.715 121.741L482.672 126.61L482.766 126.789L489.809 121.92L489.715 121.741Z" fill="white"/>
<defs>
<clipPath id="clip0_121_202">
<rect width="478" height="352" fill="white" transform="translate(0 55)"/>
</clipPath>
</defs>
</svg>
